<svg width="47" height="47" viewBox="0 0 47 47" fill="none" xmlns="http://www.w3.org/2000/svg">
<path fill-rule="evenodd" clip-rule="evenodd" d="M32.8805 35.0018C33.4663 35.5876 34.416 35.5876 35.0018 35.0018C35.5876 34.416 35.5876 33.4663 35.0018 32.8805L25.4558 23.3345L35.0018 13.7886C35.5876 13.2028 35.5876 12.2531 35.0018 11.6673C34.416 11.0815 33.4663 11.0815 32.8805 11.6673L23.3345 21.2132L13.7886 11.6673C13.2028 11.0815 12.253 11.0815 11.6673 11.6673C11.0815 12.2531 11.0815 13.2028 11.6673 13.7886L21.2132 23.3345L11.6673 32.8805C11.0815 33.4663 11.0815 34.416 11.6673 35.0018C12.253 35.5876 13.2028 35.5876 13.7886 35.0018L23.3345 25.4559L32.8805 35.0018Z" fill="#262424"/>
</svg>
