<svg width="183" height="65" viewBox="0 0 183 65" fill="none" xmlns="http://www.w3.org/2000/svg">
<path fill-rule="evenodd" clip-rule="evenodd" d="M115.834 4.47258C115.834 5.99491 115.25 7.35203 114.016 8.59114C112.961 9.71223 111.437 10.7507 109.676 11.6712C107.859 12.5917 105.808 13.4296 103.462 14.1907C101.178 14.9106 98.7112 15.5478 96.1928 16.1084C93.7306 16.7102 91.1473 17.1882 88.6289 17.5894C86.1668 18.026 83.8171 18.3506 81.6492 18.6279C80.5934 19.6664 79.4813 20.8642 78.3649 22.1859C77.1922 23.543 76.1364 24.9473 75.1411 26.3812C74.2021 27.7855 73.4406 29.1426 72.7958 30.423C72.2073 31.6208 71.9737 32.5826 71.9737 33.3379C71.9737 33.6624 72.0342 33.9397 72.2679 34.1816C72.5622 34.5416 72.9127 34.8189 73.38 35.0608C73.8517 35.2968 74.3796 35.4975 74.9637 35.6214C75.5522 35.7394 76.1364 35.7807 76.6643 35.7807C77.6639 35.7807 78.6591 35.6214 79.6544 35.2968C80.5934 34.9369 81.5929 34.5003 82.4714 33.8984C83.3498 33.3379 84.2282 32.6593 85.0503 31.8981C85.8725 31.1429 86.5735 30.2991 87.2788 29.4612C87.3394 29.3845 87.4562 29.3019 87.5125 29.3019C89.6242 26.8237 93.4364 22.3039 93.4364 22.3039C93.5532 22.1859 93.6701 22.1033 93.7869 22.1033H95.7817C95.9591 22.1033 96.1928 22.3039 96.249 22.5871C96.3096 22.6638 96.3096 22.7465 96.3096 22.8645C96.3096 23.0651 96.249 23.2657 96.1322 23.3837C95.8985 23.7436 95.4312 24.2629 94.8427 24.9827C94.3148 25.6672 93.6138 26.4225 92.7916 27.3843C92.0301 28.2634 91.2641 29.2252 90.3857 30.2224C89.5679 31.2196 88.802 32.1401 88.101 33.0192V33.0605C87.9236 33.2199 87.7462 33.4205 87.5125 33.6978L86.9846 34.4177C86.8115 34.6596 86.6341 34.9015 86.5173 35.1375C86.5173 35.2201 86.4567 35.2968 86.4567 35.3381C86.5173 35.3794 86.6903 35.4207 86.8678 35.4207C87.1014 35.4207 87.4562 35.3381 87.8067 35.2201C88.1572 35.1375 88.5121 34.9782 88.802 34.8189C89.6242 34.459 90.3295 33.981 91.0305 33.4205C91.6752 32.8599 92.2637 32.3407 92.7311 31.8981C92.7311 31.8627 100.589 22.3039 100.589 22.3039C100.65 22.1859 100.823 22.1033 100.94 22.1033H102.935C103.112 22.1033 103.346 22.3039 103.406 22.5871C103.462 22.6638 103.462 22.7465 103.462 22.8645C103.462 23.0651 103.406 23.2657 103.285 23.425C101.939 25.0241 100.65 26.7057 99.4165 28.3814C98.127 30.0218 96.777 31.7034 95.2538 33.3792C94.6653 33.9397 94.4922 34.2997 94.3754 34.5003C94.2585 34.7776 94.198 34.9369 94.198 35.0195V35.0608C94.4316 35.2968 94.7259 35.4207 95.137 35.4207C95.7211 35.4207 96.4265 35.1788 97.188 34.7422H97.2486C98.0102 34.341 98.7112 33.9397 99.2997 33.5385C99.3603 33.4618 99.4771 33.3792 99.6502 33.3025C99.7108 32.9425 99.8839 32.5826 100.061 32.1814C100.589 31.1016 101.234 30.8597 101.706 30.8597C101.996 30.8597 102.234 30.9423 102.523 31.0603C102.757 31.1842 102.935 31.4615 102.935 31.7801V31.8627C102.818 32.7006 102.64 33.3025 102.35 33.6978C102.173 33.9397 101.939 34.1816 101.762 34.4177C101.584 34.6596 101.468 34.9015 101.351 35.1375C101.295 35.2201 101.295 35.2968 101.295 35.3381C101.351 35.3794 101.468 35.4207 101.645 35.4207C101.939 35.4207 102.234 35.3381 102.584 35.2201C102.935 35.1375 103.285 34.9782 103.579 34.8602C103.64 34.8189 104.986 33.981 104.986 33.981C107.158 32.3407 110.676 28.4227 115.423 22.3039C115.544 22.1859 115.661 22.1033 115.834 22.1033H122.753C122.991 22.1033 123.225 22.3039 123.281 22.5871C123.341 22.6638 123.341 22.7465 123.341 22.8645C123.341 23.0651 123.281 23.2657 123.164 23.425C121.818 25.0241 120.524 26.7057 119.296 28.3814C118.006 30.0218 116.6 31.7034 115.133 33.3792C114.544 33.9397 114.371 34.2997 114.25 34.5003C114.133 34.7776 114.077 34.9369 114.077 35.0195V35.0608C114.311 35.2968 114.605 35.4207 115.016 35.4207C115.6 35.4207 116.305 35.1788 117.067 34.7422C117.889 34.341 118.59 33.9397 119.179 33.5385C119.707 33.1786 120.234 32.7832 120.879 32.4233C120.996 31.9808 121.169 31.5795 121.347 31.1429C121.818 30.2637 122.346 29.3845 123.047 28.5054C123.752 27.6616 124.57 26.865 125.509 26.0625C126.392 25.3073 127.327 24.6228 128.326 24.0623C129.265 23.4663 130.261 22.9884 131.2 22.6638C132.195 22.3039 133.134 22.1033 134.012 22.1033C134.484 22.1033 134.951 22.2272 135.362 22.4632C135.596 22.6284 135.83 22.8645 136.063 23.1477C136.357 22.7465 136.712 22.3039 136.712 22.3039C136.829 22.1859 136.946 22.1033 137.063 22.1033H139.058C139.291 22.1033 139.464 22.3039 139.586 22.5871V22.8645C139.586 23.0651 139.525 23.2657 139.408 23.3837C139.058 23.8676 138.53 24.5874 137.764 25.4666L136.829 26.7057L135.362 28.5054C134.484 29.5851 133.601 30.7003 132.723 31.7801C131.844 32.9012 131.083 33.8984 130.438 34.7422C130.317 34.9782 130.261 35.1021 130.2 35.1788V35.2201C130.317 35.2201 130.555 35.2614 130.788 35.2614C131.611 35.2614 132.428 35.0195 133.251 34.6183C134.129 34.1816 134.951 33.6624 135.656 33.1018C136.418 32.5 137.063 31.9394 137.591 31.4202C138.175 30.8597 138.53 30.4997 138.763 30.2991C138.88 30.2224 138.936 30.1811 139.058 30.1811H139.114C139.231 30.1811 139.291 30.2224 139.408 30.2224V30.2637C140.053 29.3019 140.637 28.464 141.109 27.8209C141.165 27.5849 141.286 27.3843 141.459 27.2662L142.749 25.502C143.277 24.8647 143.688 24.3455 144.038 23.903C144.393 23.425 144.804 22.9058 145.155 22.3452C145.271 22.1859 145.388 22.1033 145.566 22.1033H147.677C147.911 22.1033 148.084 22.3039 148.205 22.5871V22.8645C148.205 23.0651 148.145 23.2244 148.084 23.3837C147.617 24.0269 146.622 25.3427 145.211 27.3016C146.678 27.3016 149.14 27.343 149.434 27.343C149.785 26.9063 153.424 22.1859 153.424 22.1859C153.48 22.0266 153.597 21.9853 153.774 21.944L155.769 21.7847H155.825C156.003 21.7847 156.236 21.944 156.297 22.2272C156.353 22.3039 156.353 22.4278 156.353 22.5045C156.353 22.7052 156.297 22.9058 156.176 23.0651C154.83 24.8234 153.48 26.6231 152.251 28.3814C150.957 30.1398 149.551 31.9394 148.028 33.6978C147.439 34.3823 147.206 34.7776 147.089 34.9782C146.972 35.2614 146.911 35.4207 146.911 35.4975C147.149 35.6568 147.383 35.7394 147.734 35.7394H147.85C148.439 35.6568 149.14 35.3794 149.906 34.8602C150.724 34.3823 151.429 33.8984 152.013 33.4618C152.368 33.1786 152.718 32.9425 153.069 32.6593C153.303 32.0634 153.657 31.3789 154.069 30.7003C154.475 29.9038 155.064 29.06 155.652 28.3047C156.297 27.5023 156.998 26.7411 157.76 25.9858C158.526 25.266 159.287 24.5874 160.166 24.0269C160.988 23.425 161.922 22.9471 162.861 22.5871C163.8 22.2685 164.739 22.0679 165.735 22.0679C166.379 22.0679 166.851 22.2272 167.145 22.5045C167.435 22.7465 167.669 23.0651 167.846 23.4663C167.907 23.5843 167.963 23.7082 167.963 23.8676V24.1449C168.024 24.3455 168.024 24.5461 168.024 24.7467L168.197 24.8647C168.435 25.0241 168.725 25.1421 169.079 25.2247C169.724 25.4253 170.308 25.5846 170.836 25.6672C171.364 25.7852 171.892 25.8265 172.364 25.8265C172.771 25.8265 173.125 25.7439 173.415 25.6672C173.826 25.5433 174.064 25.4666 174.121 25.4253C174.181 25.384 174.237 25.3427 174.298 25.3427C174.415 25.3427 174.532 25.384 174.649 25.502C174.765 25.6259 174.882 25.8619 174.882 26.1038V26.3045C174.882 26.5818 174.709 26.865 174.532 26.983C174.064 27.2249 173.593 27.343 173.125 27.3843C172.42 27.461 172.364 27.461 172.364 27.461C171.364 27.461 170.425 27.343 169.491 27.1423C168.785 26.9417 168.14 26.7824 167.669 26.6231C167.379 27.2662 166.968 27.9802 166.496 28.7827C165.851 29.7445 165.09 30.7003 164.211 31.6621C163.333 32.618 162.333 33.5798 161.221 34.4177C160.166 35.2968 158.993 36.0167 157.76 36.5772H157.703C156.704 36.9372 155.825 37.1378 155.064 37.1378C154.302 37.1378 153.774 36.9785 153.363 36.6186C152.952 36.2586 152.718 35.7394 152.658 35.1021C152.602 35.1021 152.602 35.1375 152.602 35.1375C152.191 35.4207 151.84 35.6981 151.429 35.94L150.607 36.5359L150.551 36.5772C149.962 36.8605 149.495 37.0611 149.023 37.1791C148.556 37.3384 148.205 37.421 147.85 37.4564C147.677 37.4977 147.5 37.4977 147.383 37.4977C147.149 37.4977 146.911 37.4564 146.738 37.421C146.384 37.3797 146.094 37.2204 145.856 37.0611C145.449 36.8192 145.155 36.4592 145.038 36.0167C144.865 35.5919 144.804 35.2083 144.804 34.8189L144.744 34.7009C144.744 34.099 145.038 33.3792 145.505 32.5413C145.505 32.5 145.566 32.4587 145.566 32.4587C145.566 32.4587 147.033 30.541 148.028 29.2606C146.505 29.2252 144.159 29.1839 143.865 29.1426C141.693 32.0988 139.875 34.6596 138.352 36.7366C138.292 36.8605 138.119 36.9372 138.002 36.9372L136.007 37.0611H135.946C135.773 37.0611 135.54 36.8959 135.479 36.6599C135.419 36.5359 135.419 36.4179 135.419 36.3412C135.419 36.1406 135.479 35.9813 135.54 35.8161C135.83 35.3794 136.124 34.9782 136.418 34.577C136.241 34.7422 136.007 34.9015 135.83 35.0608C135.012 35.6568 134.129 36.176 133.134 36.5772C132.195 37.0198 131.083 37.2204 129.966 37.2204C129.205 37.2204 128.616 37.0611 128.149 36.6599C127.855 36.3766 127.621 36.0167 127.504 35.6568C127.21 35.8987 126.859 36.0993 126.509 36.2999C126.098 36.5359 125.57 36.7779 125.042 36.9372C124.514 37.0965 123.926 37.1791 123.281 37.1791C122.813 37.1791 122.402 37.0611 122.052 36.8605C121.697 36.6186 121.407 36.3412 121.23 36.0167C120.996 35.6981 120.879 35.3381 120.762 34.9369C120.762 34.8189 120.702 34.7009 120.702 34.5416L119.94 35.0608L119.646 35.2614C119.235 35.4975 118.884 35.7394 118.534 35.94L117.651 36.4592C117.651 36.4592 117.651 36.5005 117.595 36.5005C117.067 36.7366 116.6 36.8959 116.128 36.9785C115.717 37.0965 115.306 37.1378 114.955 37.1378C114.488 37.1378 114.133 37.0965 113.843 36.9785C113.488 36.8605 113.199 36.7366 112.961 36.5359C112.61 36.2586 112.316 35.8987 112.143 35.4207C111.97 35.0313 111.909 34.6065 111.905 34.217V34.1816V34.0577C111.905 33.2612 112.143 32.5826 112.493 31.9808C112.554 31.9394 112.554 31.9394 112.554 31.8981C112.554 31.8981 117.418 25.9858 119.001 24.0269H118.24C117.244 24.1036 116.245 24.7467 115.25 25.9032C114.133 27.2249 113.138 28.3814 112.199 29.4199C111.26 30.423 110.148 31.6621 108.742 33.0605C107.859 33.8217 107.275 34.341 107.097 34.5416L106.219 35.2614C105.868 35.4621 105.513 35.6981 105.163 35.8987C104.752 36.1406 104.341 36.3412 103.813 36.5772C103.813 36.5772 103.757 36.5772 103.757 36.6186C103.406 36.7012 103.051 36.8192 102.64 36.9372C102.173 37.0611 101.762 37.0965 101.351 37.0965C100.823 37.0965 100.472 36.9785 100.178 36.7779L100.122 36.7366C99.767 36.4179 99.5334 35.9813 99.4165 35.4621C99.1829 35.6214 98.8886 35.7807 98.6549 35.94L98.2439 36.176L97.7765 36.4592C97.7765 36.4592 97.7765 36.5005 97.7159 36.5005C97.188 36.7366 96.7207 36.8959 96.249 36.9785C95.838 37.0965 95.4312 37.1378 95.0764 37.1378C94.609 37.1378 94.2585 37.0965 93.9643 36.9785C93.6138 36.8605 93.3195 36.7012 93.0859 36.5359C92.7311 36.2586 92.4368 35.8987 92.2637 35.4207L92.0863 34.7009C91.8526 34.9015 91.619 35.0608 91.3853 35.2614C91.0911 35.4621 90.7406 35.6981 90.3295 35.8987C89.9747 36.1406 89.5073 36.3412 89.04 36.5772C88.9794 36.5772 88.9794 36.5772 88.9794 36.6186C88.6289 36.7012 88.2178 36.8192 87.8067 36.9372C87.3957 37.0611 86.9283 37.0965 86.5735 37.0965C86.0456 37.0965 85.6388 36.9785 85.3446 36.7779V36.7366C84.8167 36.2586 84.5224 35.5388 84.5224 34.7422V34.5003C84.0551 34.9015 83.5834 35.2968 83.0555 35.6568C82.1209 36.3412 81.065 36.8959 79.9486 37.2971C78.776 37.6983 77.4259 37.899 76.0196 37.899C75.1411 37.899 74.319 37.8164 73.5574 37.6157C72.7352 37.421 72.0342 37.1378 71.4457 36.7366C70.801 36.3412 70.2731 35.8161 69.9226 35.2201C69.4509 34.5416 69.2778 33.7391 69.2778 32.8599C69.2778 31.7388 69.5721 30.4643 70.2168 29.06C70.801 27.7029 71.5063 26.3458 72.3847 24.9473C73.2632 23.5843 74.2627 22.2272 75.3186 20.9468C75.9027 20.2682 76.4306 19.6664 76.9585 19.1058C75.8465 19.1884 74.7906 19.2652 74.6132 19.2652C74.3796 19.5071 59.7191 33.5031 59.7191 33.5031C58.0791 35.1021 56.6122 36.2173 55.4396 36.8605C54.2063 37.4977 53.2673 37.8164 52.5058 37.8164C51.9779 37.8164 51.5668 37.657 51.2769 37.3384C50.922 36.9785 50.7489 36.4592 50.7489 35.8574C50.7489 35.3381 50.922 34.7422 51.2163 34.0577C51.4499 33.4618 51.861 32.8599 52.4495 32.2227C53.0337 31.5441 53.739 30.7003 54.7343 29.6619C55.6732 28.6234 56.7291 27.461 57.958 26.2219C59.135 24.9827 60.4245 23.7082 61.8308 22.3865C62.5924 21.6254 63.4145 20.8642 64.2324 20.1443C62.826 20.2682 61.4197 20.3863 61.2423 20.3863C60.0696 21.5487 58.6633 22.7052 57.0796 23.9443C55.379 25.2247 53.5616 26.5051 51.6273 27.7855C49.6325 29.0246 47.5209 30.2637 45.2924 31.3789C43.1245 32.5413 40.8397 33.5798 38.5507 34.4177C36.2053 35.2968 33.86 36.0167 31.5753 36.5359C29.2256 37.0611 26.8803 37.3384 24.6518 37.3384C22.3671 37.3384 20.1386 37.0198 18.0875 36.4179C16.1533 35.8161 14.3359 34.8602 12.6916 33.5385C11.0516 34.5416 9.64091 35.6214 8.41199 36.7366C7.17875 37.899 6.12292 39.1381 5.30509 40.3772C4.48293 41.6163 3.83818 42.8967 3.4271 44.1771C3.0766 45.4516 2.84294 46.732 2.84294 47.9711C2.84294 48.9742 2.95977 49.9301 3.19344 50.8093C3.36652 51.7298 3.72135 52.6089 4.13243 53.4114C4.95026 55.0871 6.23976 56.5682 7.88408 57.766C9.58465 59.0051 11.6963 60.0082 14.1585 60.728C16.6812 61.4066 19.5544 61.7665 22.7782 61.7665C24.0677 61.7665 25.6514 61.6072 27.4688 61.2473C29.2862 60.9286 31.2205 60.4448 33.2715 59.7662C35.2664 59.129 37.2612 58.2852 39.1954 57.3293C41.1902 56.3676 42.9471 55.2111 44.4746 53.9306C45.9977 52.6915 47.2872 51.2931 48.2262 49.7295C48.6935 49.0096 49.0484 48.2544 49.282 47.4519C49.4594 46.6553 49.5763 45.8115 49.5763 44.9737C49.5763 44.2125 49.3989 43.5753 48.9878 43.056C48.5767 42.4128 47.9925 41.9349 47.2872 41.5337C46.5256 41.1383 45.6472 40.8138 44.5914 40.6191C43.5918 40.4185 42.5403 40.3359 41.4239 40.3359C39.6671 40.3359 38.0228 40.6191 36.5558 41.1737C35.0327 41.7756 33.6826 42.5368 32.51 43.4159C31.281 44.3364 30.2815 45.3336 29.4031 46.4134C28.4641 47.5345 27.7631 48.6143 27.2351 49.6528C27.1183 49.8534 26.9409 49.9714 26.7635 49.9714C26.7072 49.9714 26.5904 49.9301 26.4736 49.8534C26.3524 49.7295 26.2356 49.4935 26.2356 49.2102C26.2356 49.0922 26.2356 49.0096 26.2961 48.8916C26.7635 47.6112 27.5251 46.3308 28.4641 45.0917C29.4031 43.8526 30.5757 42.7728 31.8652 41.7756C33.1547 40.8138 34.6822 40.0172 36.2659 39.4154C37.9059 38.8194 39.6671 38.5362 41.5407 38.5362C42.8302 38.5362 44.0635 38.6601 45.2361 38.9375C46.465 39.2148 47.5209 39.6573 48.4036 40.2179C49.3989 40.8138 50.1604 41.575 50.7489 42.4542C51.3331 43.4159 51.6273 44.537 51.6273 45.8115C51.6273 47.7705 51.0994 49.6528 50.1042 51.3285C49.1046 52.9689 47.8151 54.4499 46.1751 55.7657C44.5914 57.0874 42.774 58.2498 40.7186 59.247C38.6675 60.2442 36.5558 61.088 34.3879 61.7665C32.2763 62.4451 30.1084 62.9643 27.9967 63.3243C25.8851 63.6429 23.9508 63.8435 22.1897 63.8435C19.377 63.8435 16.6206 63.4836 14.0979 62.805C11.5189 62.1264 9.23415 61.1234 7.29558 59.8076C5.36134 58.5271 3.7776 56.8868 2.60494 55.0104C1.43228 53.0515 0.848114 50.8506 0.848114 48.4137C0.848114 46.8913 1.08178 45.3336 1.60969 43.8172C2.07703 42.3361 2.84294 40.8138 3.7776 39.4154C4.7166 37.9757 5.88926 36.5772 7.29558 35.2614C8.41199 34.1403 9.76207 33.1018 11.2246 32.0988C10.8136 31.5441 10.4068 30.901 9.99573 30.1398C9.40724 28.942 9.05674 27.5436 9.05674 26.0212C9.05674 24.5048 9.40724 23.1064 10.052 21.7847C10.6967 20.5456 11.5189 19.4304 12.5747 18.386C13.6305 17.3888 14.8595 16.5096 16.2095 15.7071C17.5596 14.9519 18.9659 14.3087 20.4328 13.7482C21.8998 13.2289 23.4229 12.8336 24.9461 12.5504C26.4736 12.2731 27.9361 12.1137 29.3468 12.1137C31.1642 12.1137 32.8648 12.3085 34.3274 12.6684C35.8548 12.9929 37.1443 13.5122 38.2564 14.1907C39.3728 14.8693 40.2512 15.7485 40.896 16.7515C41.5407 17.8313 41.8956 19.0704 41.8956 20.4276C45.0587 19.7903 48.1656 19.3065 51.2163 18.9878C54.44 18.6692 57.6075 18.4273 60.4807 18.268C61.7702 17.3888 62.9429 16.4683 64.1155 15.6304C65.2319 14.7513 66.4046 13.8721 67.6335 12.9103C68.8062 12.0311 70.1 11.1107 71.5063 10.1902C72.8521 9.27559 74.3796 8.27251 76.0801 7.27532H76.0196C76.898 6.75608 77.6639 6.35484 78.3086 6.03621C78.9534 5.71759 79.4813 5.55237 79.8924 5.55237C80.126 5.55237 80.2991 5.63498 80.4765 5.71759C80.7102 5.9123 80.8876 6.23683 80.8876 6.63217C80.8876 7.0334 80.7102 7.43464 80.3597 7.95388C80.0655 8.35511 79.5981 8.83306 79.0096 9.43491C79.0096 9.43491 72.8521 15.5124 70.6842 17.6307C72.0905 17.5068 73.5012 17.3888 73.6742 17.3888C74.6738 16.3916 75.8465 15.3472 77.1922 14.35C78.5423 13.3115 80.0092 12.3085 81.4718 11.3526C82.8824 10.3908 84.2888 9.51161 85.5783 8.71505C86.9283 7.91258 87.9842 7.23402 88.8626 6.71477C88.9188 6.67347 88.9794 6.67347 89.0962 6.67347C89.2737 6.67347 89.4467 6.83278 89.5679 7.0747C89.6242 7.19271 89.6242 7.31663 89.6242 7.39333C89.6242 7.67656 89.5073 7.95388 89.3299 8.07189C88.2178 8.79175 87.0452 9.63552 85.6951 10.5914C84.4056 11.5119 83.0555 12.4737 81.766 13.4709C80.4765 14.4326 79.2476 15.3885 78.1312 16.3503C77.7807 16.6276 77.4259 16.8695 77.136 17.1469C78.0706 17.0289 78.9534 16.9463 79.0096 16.9463C80.1823 16.0317 81.4718 14.9873 82.8824 13.8721C84.345 12.751 85.8725 11.5532 87.5125 10.3908C89.2131 9.19299 90.9742 8.07189 92.7916 6.95669C94.609 5.8769 96.5433 4.87381 98.4775 4.03594C100.412 3.15677 102.35 2.47821 104.341 1.95896C106.279 1.43972 108.27 1.15649 110.265 1.15649C110.909 1.15649 111.554 1.2391 112.143 1.35711C112.787 1.47512 113.372 1.63444 113.9 1.87636C114.371 2.11828 114.839 2.3956 115.189 2.75553C115.717 3.35738 115.834 3.99464 115.834 4.47258ZM155.064 35.5388C155.414 35.5388 155.769 35.4975 156.176 35.3794C156.587 35.2968 157.059 35.1021 157.526 34.8602C158.759 34.1816 159.932 33.3379 161.044 32.4233C162.1 31.5028 163.095 30.4997 163.917 29.5025C164.739 28.5054 165.384 27.5023 165.795 26.5464C166.263 25.6672 166.44 24.8647 166.44 24.1449C166.44 24.1036 166.44 24.0623 166.379 24.0269C166.263 23.9443 166.089 23.8676 165.795 23.8676C165.15 23.8676 164.445 24.1036 163.684 24.5874C162.922 25.0654 162.1 25.7026 161.221 26.4638C160.399 27.2662 159.577 28.1041 158.815 29.06C158.054 29.9805 157.349 30.901 156.704 31.7801C156.12 32.6593 155.592 33.4618 155.124 34.1403C154.596 34.9782 154.419 35.3381 154.419 35.4207C154.475 35.4975 154.653 35.5388 155.064 35.5388ZM123.636 35.2968C124.103 35.2968 124.57 35.2201 124.981 35.0608C125.453 34.8602 125.864 34.6183 126.331 34.341C126.743 34.0577 127.154 33.7391 127.565 33.3792C127.971 33.0192 128.326 32.6593 128.677 32.2994C128.794 32.1814 129.027 31.8981 129.382 31.5028C129.733 31.1016 130.083 30.6236 130.494 30.1044L131.844 28.464C132.312 27.9035 132.723 27.343 133.134 26.8237C133.545 26.3458 133.839 25.9032 134.129 25.5433C134.363 25.2247 134.484 25.0241 134.601 24.9473C134.657 24.7821 134.717 24.6228 134.774 24.4222C134.834 24.3868 134.834 24.3868 134.834 24.3455C134.834 24.1862 134.774 24.1449 134.717 24.0623C134.601 23.9443 134.363 23.8676 134.012 23.8676C133.484 23.8676 132.783 24.0623 132.078 24.5048C131.256 24.906 130.494 25.4666 129.672 26.1865C128.854 26.865 128.032 27.6616 127.27 28.5054C126.509 29.3845 125.804 30.2637 125.159 31.1016C124.57 31.9394 124.103 32.7419 123.752 33.5031C123.341 34.341 123.225 34.8189 123.225 35.0195C123.225 35.1021 123.281 35.1788 123.341 35.2614C123.341 35.2614 123.458 35.2968 123.636 35.2968ZM99.8276 5.67628C98.0102 6.47285 96.249 7.43464 94.4922 8.47312C92.7311 9.51161 91.0305 10.6327 89.4467 11.7125C87.9236 12.8336 86.5173 13.9488 85.284 15.0286C84.7561 15.5124 84.2282 15.9904 83.7608 16.427C85.8725 16.0671 87.9236 15.7071 89.9747 15.3472C92.6748 14.828 95.2538 14.232 97.6597 13.6302C100.061 12.9929 102.35 12.3085 104.401 11.5945C106.396 10.8746 108.214 10.1135 109.737 9.311C111.143 8.51443 112.316 7.67656 113.138 6.79148C113.843 6.03621 114.25 5.27505 114.25 4.51388C114.25 4.47258 114.25 4.35457 114.077 4.11855C113.843 3.91793 113.549 3.71731 113.199 3.558C112.787 3.35738 112.376 3.23347 111.848 3.15677C111.321 3.03876 110.793 2.99745 110.265 2.99745C108.681 2.99745 106.98 3.23347 105.224 3.71731C103.462 4.19526 101.645 4.87381 99.8276 5.67628ZM54.7948 34.0223C54.2063 34.6596 53.739 35.1788 53.4448 35.6214C53.3885 35.7394 53.2673 35.8574 53.2111 35.94C53.5616 35.8574 54.0333 35.6568 54.9117 35.1788C55.9069 34.6596 57.1964 33.6211 58.6633 32.1814C58.6633 32.1814 69.1004 21.8673 71.5626 19.4658C70.1563 19.5897 68.6893 19.7077 68.4557 19.749C68.222 19.985 54.7948 34.0223 54.7948 34.0223ZM76.0801 9.311C74.4964 10.2728 73.0901 11.1933 71.9174 12.0724C70.6842 12.9516 69.5721 13.7895 68.5163 14.592C67.4604 15.4298 66.4609 16.2264 65.4656 17.0289C65.0545 17.3888 64.5872 17.7487 64.1761 18.1087C65.405 18.026 66.5214 17.9493 66.6383 17.9493C66.8719 17.7487 75.4916 10.0722 76.9585 8.75045C76.6643 8.91566 76.3744 9.11038 76.0801 9.311ZM19.4333 34.4177C21.3718 35.0195 23.4229 35.3381 25.6514 35.3381C27.4688 35.3381 29.4636 35.0608 31.5147 34.5416C33.6264 34.0223 35.738 33.3025 37.9059 32.4587C40.0738 31.5795 42.1855 30.5823 44.3577 29.4612C46.465 28.3047 48.4599 27.1423 50.3941 25.9445C52.2721 24.7467 54.0333 23.5076 55.6127 22.3452C56.4954 21.708 57.257 21.1061 57.958 20.5043C57.7243 20.5456 57.4344 20.5456 57.1964 20.5456C56.1406 20.6282 54.9679 20.7462 53.7953 20.8642C52.5663 20.9881 51.3937 21.1474 50.1604 21.2654C48.9315 21.4247 47.7589 21.5841 46.6425 21.7493C45.5304 21.9086 44.4746 22.0679 43.5356 22.2272C42.7134 22.3865 42.0687 22.5045 41.4845 22.6284C41.1297 23.5843 40.5455 24.5048 39.7233 25.4253C38.7843 26.3812 37.6723 27.3016 36.439 28.1041C35.1495 28.8653 33.7994 29.5025 32.3931 29.9805C30.9262 30.4997 29.4636 30.7416 28.1136 30.7416C27.0015 30.7416 25.8851 30.541 24.8898 30.1398C23.9508 29.8212 23.1287 29.2252 22.4277 28.4227C21.255 28.8653 19.9612 29.4612 18.5549 30.1811C17.3822 30.7829 16.2095 31.4615 15.0369 32.1401C16.387 33.1432 17.8539 33.8984 19.4333 34.4177ZM25.3572 28.2221C26.1187 28.5054 27.0577 28.6647 28.1136 28.6647C29.2256 28.6647 30.4026 28.5054 31.6315 28.1454C32.8648 27.8209 34.0937 27.3016 35.1495 26.7057C36.2659 26.1038 37.2612 25.3427 38.1396 24.4635C38.5507 24.0623 38.9618 23.5843 39.256 23.1064C36.7938 23.6669 34.2711 24.3042 31.7484 25.0654C29.1694 25.8265 26.7072 26.7057 24.3619 27.6616C24.6518 27.9035 25.0067 28.0628 25.3572 28.2221ZM25.1235 14.35C23.7172 14.592 22.3671 14.9873 21.017 15.4711C19.7275 15.9491 18.438 16.5863 17.2654 17.2708C16.0321 17.9906 15.0369 18.7872 14.1585 19.6664C13.28 20.5456 12.5747 21.5073 12.1074 22.5458C11.5795 23.543 11.3415 24.5874 11.3415 25.7026C11.3415 26.865 11.5795 27.8622 12.1074 28.7414C12.5141 29.5438 12.9858 30.1811 13.4531 30.7003C14.0979 30.2991 14.7426 29.9038 15.448 29.5025C16.2701 29.0246 17.0317 28.6234 17.8539 28.2221C18.6717 27.8209 19.4333 27.461 20.1992 27.101C20.6665 26.9063 21.1338 26.7411 21.4887 26.5464C21.4887 26.4225 21.4887 26.2632 21.4887 26.1038C21.4887 25.7026 21.5449 25.266 21.7223 24.8234C21.8392 24.4222 22.0728 24.0269 22.3671 23.6669C22.6613 23.307 23.0118 22.9884 23.4229 22.7465C23.834 22.4632 24.3619 22.2685 24.8898 22.1033H24.9461C25.1797 22.1033 25.4177 22.3039 25.474 22.6284C25.474 22.7052 25.5346 22.7878 25.5346 22.8645C25.5346 23.1477 25.4177 23.3837 25.2403 23.5076C24.4787 24.0623 23.8902 24.5461 23.6003 24.9827C23.3061 25.4253 23.2455 25.7026 23.2455 25.7852C23.2455 25.8619 23.2455 25.9032 23.3061 25.9445C24.773 25.384 26.2356 24.8647 27.5856 24.3868C29.0526 23.8676 30.5195 23.3837 31.9258 22.9471C33.3321 22.5045 34.7384 22.1033 36.0885 21.7493C37.378 21.4247 38.7281 21.1061 40.1344 20.7875C40.1344 20.7049 40.1344 20.6282 40.1344 20.5456C40.195 20.3863 40.195 20.2269 40.195 20.1089C40.195 19.1884 39.9007 18.4273 39.3728 17.7074C38.7843 16.9463 38.0228 16.2677 37.0275 15.7071C35.9717 15.1112 34.799 14.6687 33.4489 14.3913C32.0989 14.1081 30.6363 13.9488 29.1088 13.9488C27.8193 13.9488 26.4736 14.0727 25.1235 14.35Z" fill="#262424"/>
<path fill-rule="evenodd" clip-rule="evenodd" d="M174.709 19.4127C175.471 20.6105 175.181 23.0533 174.887 24.6523C175.354 23.4486 176.115 22.0502 176.821 21.8142C177.699 21.4896 178.288 19.6546 178.405 19.2121C178.638 20.1325 178.932 20.9704 178.932 20.9704C178.932 20.9704 178.054 22.894 177.232 23.13C176.47 23.3719 175.298 24.9296 174.77 25.6908C174.826 25.8088 174.887 26.0094 174.887 26.1274C175.648 26.2101 177.349 26.1274 177.993 25.5728C178.699 24.9296 180.278 25.4902 180.278 25.4902C180.278 25.4902 180.516 26.3281 180.806 27.2485C180.516 27.0066 179.166 26.2868 178.344 26.9299C177.76 27.4079 176.47 27.1305 175.531 26.7706C176.527 27.6085 177.993 29.0895 178.11 30.6472C178.171 32.4469 177.466 33.1254 176.47 33.686C175.531 34.2052 174.653 34.4472 173.77 33.0841C172.831 31.6444 173.48 28.2457 173.77 26.9712C173.653 26.7706 173.536 26.3281 173.536 26.1688C172.658 25.5315 170.486 23.7731 170.369 21.8496C170.313 20.0499 171.014 19.3714 172.013 18.8108C172.952 18.2916 173.831 18.0556 174.709 19.4127ZM177.171 31.2078C177.232 32.3643 176.821 33.1254 176.41 33.3674C175.999 33.6034 175.298 33.4441 174.709 32.6062C174.298 31.9689 174.242 28.7709 174.242 27.1718C174.415 27.1305 174.653 26.9712 174.709 26.8886C175.531 28.0097 177.171 30.3286 177.171 31.2078ZM173.77 19.8906C174.181 20.5338 174.242 23.7318 174.242 25.3309C174.242 25.3309 173.948 25.4076 173.77 25.6082C172.952 24.493 171.308 22.1328 171.308 21.2949C171.252 20.1325 171.658 19.3714 172.07 19.1353C172.481 18.8934 173.186 19.0527 173.77 19.8906Z" fill="#262424"/>
<path fill-rule="evenodd" clip-rule="evenodd" d="M85.8725 40.9377C87.5731 40.8551 90.68 42.2181 90.68 42.2181C90.68 42.2181 80.0655 46.0948 73.3237 48.6143C80.0655 51.2105 90.6194 55.3704 90.6194 55.3704C90.6194 55.3704 87.5125 56.6862 85.8119 56.5269C84.1719 56.4089 69.5721 50.9686 68.222 50.4493C67.9883 50.5732 67.8109 50.6087 67.7547 50.6087C67.3436 50.7739 65.2882 51.0512 64.4704 50.8093C64.5266 50.9686 64.6434 51.1692 64.6434 51.3285C65.2882 53.848 63.354 56.7275 60.3076 57.8486C57.3132 58.9697 53.6222 58.1259 52.9774 55.6477C52.3327 53.1282 55.2059 50.4139 58.196 49.3341C59.836 48.7323 61.3591 48.573 62.653 49.1335C63.7045 49.5702 64.9983 49.2102 65.8767 48.4904C65.0545 47.8118 63.765 47.4519 62.7092 47.8531C61.4197 48.4137 59.8966 48.213 58.2522 47.5699C55.2622 46.4134 52.5058 43.6165 53.1505 41.1383C53.7953 38.6955 57.5512 37.9403 60.5413 39.0968C63.5314 40.2592 65.405 43.2153 64.7603 45.6935C64.704 45.8941 64.6434 46.0535 64.5872 46.2128C65.405 45.9709 67.4604 46.3308 67.8715 46.496C67.8715 46.496 68.0446 46.5314 68.2783 46.614C69.9226 46.0122 84.2282 41.0144 85.8725 40.9377ZM63.4145 45.1743C62.8866 47.0152 60.8918 47.0919 58.6071 46.2128C56.3786 45.3336 53.7953 43.4572 54.3232 41.6163C54.7948 39.734 57.958 39.3387 60.2471 40.2179C62.4755 41.097 63.8819 43.2979 63.4145 45.1743ZM60.0696 56.7275C57.7849 57.5654 54.6174 57.0874 54.1501 55.211C53.6784 53.3288 56.2617 51.4878 58.5465 50.6913C60.775 49.8534 62.826 49.9714 63.2977 51.8478C63.765 53.73 62.2981 55.8896 60.0696 56.7275Z" fill="url(#paint0_linear)"/>
<path fill-rule="evenodd" clip-rule="evenodd" d="M175.821 48.2897C176.583 48.4137 177.171 48.3724 177.639 48.2543L182.156 47.3752V48.0124L173.77 49.6528C173.242 49.7708 172.654 49.8121 171.953 49.6941L165.15 48.691C164.623 48.6143 163.8 48.4904 163.216 48.6143L158.054 49.6528C157.587 49.7708 156.998 49.8121 156.236 49.6941L149.378 48.691C148.967 48.6143 148.028 48.4904 147.556 48.6143L142.338 49.6528C141.81 49.7708 141.226 49.8121 140.52 49.6941L133.718 48.691C133.311 48.6143 132.666 48.5317 132.078 48.573L126.682 49.6528C126.154 49.7708 125.57 49.8121 124.865 49.6941L118.062 48.691C117.534 48.6143 116.717 48.4904 116.128 48.6143L111.026 49.6528C110.498 49.7708 109.914 49.8121 109.153 49.6941L102.35 48.691C101.879 48.6143 101 48.4904 100.472 48.6143L95.2538 49.6528C94.7259 49.7708 94.198 49.8121 93.4926 49.6941L86.6341 48.691C86.1668 48.6143 85.284 48.4904 84.7561 48.6143L80.3597 49.4934V48.8503L88.6852 47.2159C89.3299 47.0919 90.0352 47.1746 90.6194 47.2513L97.4217 48.2543C98.0665 48.4137 98.7718 48.3311 99.2997 48.2543L104.458 47.2159C105.046 47.0919 105.751 47.1746 106.396 47.2513L113.199 48.2543C113.843 48.4137 114.544 48.3311 115.072 48.2543L120.174 47.2159C120.762 47.0919 121.347 47.1746 121.935 47.2926L128.737 48.2897C129.265 48.3724 129.733 48.3724 130.144 48.3311L135.773 47.2159C136.418 47.0919 137.119 47.1746 137.708 47.2513L144.51 48.2543C145.155 48.4137 145.856 48.3311 146.384 48.2543L151.546 47.2159C152.074 47.0919 152.835 47.1746 153.424 47.2513L160.282 48.2543C160.927 48.4137 161.632 48.3311 162.1 48.2543L167.262 47.2159C167.846 47.0919 168.435 47.1746 169.019 47.2926L175.821 48.2897Z" fill="url(#paint1_linear)"/>
<path fill-rule="evenodd" clip-rule="evenodd" d="M27.1313 48.6025C27.8972 47.6407 29.9483 45.3218 31.3546 46.0417C32.6441 46.6848 32.8215 47.9239 32.8215 49.523C32.8215 51.0807 32.6441 52.3611 31.3546 52.9984C30.2425 53.5589 28.6588 52.1192 27.6592 51.0807C28.2477 52.2785 28.9487 53.8775 28.8319 54.9573C28.715 56.3145 29.7709 57.9135 30.0651 58.1967H28.5982C28.5982 58.1967 27.603 56.2377 27.776 54.9986C27.8972 53.8362 27.3087 51.5173 26.9582 50.4788C26.8414 50.5202 26.7245 50.5202 26.6034 50.4788C26.2529 51.5173 25.6687 53.8362 25.7856 54.9986C25.9586 56.2377 24.9634 58.1967 24.9634 58.1967H23.5571C23.7907 57.9135 24.8466 56.3145 24.7297 54.9573C24.6129 53.8775 25.3139 52.2785 25.9024 51.0807C24.9634 52.1192 23.3234 53.5589 22.207 52.9984C20.9781 52.3611 20.7401 51.0807 20.7401 49.523C20.7401 47.9239 20.9781 46.6848 22.207 46.0417C23.6133 45.3218 25.6687 47.6407 26.4866 48.6025C26.664 48.4786 27.0145 48.5199 27.1313 48.6025ZM22.207 51.5173C21.3848 51.0394 21.0343 50.1602 21.0343 49.523C21.0343 48.8798 21.3848 47.9593 22.207 47.5227C22.7955 47.1628 25.0802 48.4432 26.1361 49.1217C26.1361 49.3637 26.1361 49.759 26.1361 49.9183C25.0802 50.5615 22.7955 51.8419 22.207 51.5173ZM31.3546 51.5173C30.7704 51.8419 28.542 50.5615 27.4255 49.9183C27.4255 49.8829 27.4861 49.4404 27.4255 49.1217C28.542 48.4432 30.7704 47.1628 31.3546 47.5227C32.1768 47.9593 32.5878 48.8798 32.5878 49.523C32.5878 50.1602 32.1768 51.0394 31.3546 51.5173Z" fill="#262424"/>
<defs>
<linearGradient id="paint0_linear" x1="71.783" y1="38.5657" x2="71.783" y2="58.3363" gradientUnits="userSpaceOnUse">
<stop stop-color="#E85FB1"/>
<stop offset="1" stop-color="#C447FF"/>
</linearGradient>
<linearGradient id="paint1_linear" x1="131.258" y1="47.1524" x2="131.258" y2="49.7646" gradientUnits="userSpaceOnUse">
<stop stop-color="#E85FB1"/>
<stop offset="1" stop-color="#C447FF"/>
</linearGradient>
</defs>
</svg>
