<svg width="29" height="42" viewBox="0 0 29 42" fill="none" xmlns="http://www.w3.org/2000/svg">
<path d="M4.72368 4.64953C10.1248 -0.88254 18.876 -0.882504 24.2763 4.64951C26.6974 7.1296 28.0651 10.7308 28.2966 14.4458C28.5281 18.1606 27.6198 21.9321 25.5616 24.7432L25.556 24.7508L25.5508 24.7585L14.5 41.1072L3.44923 24.7585L3.44397 24.7508L3.43841 24.7432C1.38021 21.9321 0.471937 18.1606 0.703445 14.4458C0.934966 10.7308 2.30263 7.12963 4.72368 4.64953ZM4.72368 4.64953L4.36591 4.30024M4.72368 4.64953L4.36591 4.30024M4.36591 4.30024C9.9632 -1.43276 19.0376 -1.43276 24.6341 4.30024C29.6771 9.46624 30.2448 19.1933 25.965 25.0385H3.03499C-1.24478 19.1933 -0.677086 9.46624 4.36591 4.30024ZM9.4088 14.5385C9.4088 17.48 11.7392 19.8847 14.6396 19.8847C17.54 19.8847 19.8703 17.48 19.8703 14.5385C19.8703 11.5971 17.54 9.19239 14.6396 9.19239C11.7392 9.19239 9.4088 11.5971 9.4088 14.5385Z" stroke="url(#paint0_linear)"/>
<defs>
<linearGradient id="paint0_linear" x1="14.5" y1="0.000488281" x2="14.5" y2="42.0001" gradientUnits="userSpaceOnUse">
<stop stop-color="#E85FB1"/>
<stop offset="1" stop-color="#C447FF"/>
</linearGradient>
</defs>
</svg>
