<svg width="12" height="18" viewBox="0 0 12 18" fill="none" xmlns="http://www.w3.org/2000/svg">
<path fill-rule="evenodd" clip-rule="evenodd" d="M10.6746 3.54643C11.334 6.23403 9.28349 8.40267 7.0476 8.87208C1.11323 10.1226 -1.448 1.83277 4.88412 0.16327C7.7871 -0.600756 10.1581 1.44986 10.6746 3.54643ZM8.27181 3.96161C7.97929 2.93991 6.83142 2.0065 5.39972 2.3831C2.32007 3.18497 3.60503 7.38081 6.60455 6.63029C7.66168 6.36631 8.64543 5.27163 8.27181 3.96161ZM2.76048 9.63031C4.74928 10.6854 7.35721 10.6637 9.32112 9.5814C9.42529 9.52449 9.52508 9.45837 9.62591 9.39155C9.93266 9.1883 10.2492 8.97859 10.7286 9.00176C11.5856 9.04614 13.3176 10.4128 10.2707 11.8393C9.16107 12.3576 8.7536 12.4354 8.22265 12.5368C7.95298 12.5883 7.65145 12.6459 7.20989 12.7703C7.37639 13.0747 8.72391 14.2687 9.6947 15.1288C10.0413 15.436 10.3399 15.7006 10.5196 15.8669C11.6553 16.9175 10.6888 18.1112 9.52418 17.9916C8.7846 17.9146 6.46334 15.6287 6.04229 15.1586C5.62141 15.3543 5.05748 15.907 4.48032 16.4727C3.75938 17.1793 3.0178 17.9061 2.50864 17.9826C1.29824 18.1646 0.288913 16.8858 1.51922 15.7808L4.79009 12.7912C4.6162 12.7054 4.22948 12.6297 3.85255 12.5558C3.58866 12.5041 3.32957 12.4534 3.15167 12.4008C-1.61627 10.9816 0.0828667 8.8804 1.44855 9.00629C1.80732 9.03999 2.13959 9.24919 2.43996 9.43829C2.55127 9.50838 2.6582 9.5757 2.76048 9.63031Z" fill="white"/>
</svg>
