<svg width="70" height="70" viewBox="0 0 70 70" fill="none" xmlns="http://www.w3.org/2000/svg">
<path d="M57.7642 36.9978C57.2016 36.9978 56.7455 37.4539 56.7455 38.0165C56.7455 38.7298 56.1652 39.31 55.452 39.31C54.7388 39.31 54.1585 38.7298 54.1585 38.0165C54.1585 37.4538 53.7024 36.9978 53.1398 36.9978C52.5772 36.9978 52.1211 37.4539 52.1211 38.0165C52.1211 39.8532 53.6154 41.3474 55.452 41.3474C57.2885 41.3474 58.7829 39.853 58.7829 38.0165C58.7829 37.4536 58.3268 36.9978 57.7642 36.9978Z" fill="url(#paint0_linear)"/>
<path d="M67.3263 37.1642L64.4591 36.2457C64.0918 36.128 63.8024 35.8348 63.685 35.4615C63.0807 33.5402 62.1687 31.7364 60.9745 30.1002C60.4302 29.3544 59.825 28.6422 59.1638 27.9642C59.5868 26.1085 59.8168 24.0084 59.787 22.194C59.7443 19.5984 59.2256 18.076 58.2013 17.5395C57.6496 17.2503 55.9707 16.3714 46.8835 20.5312C46.6683 20.6297 46.4673 20.7509 46.2812 20.8898C45.6686 20.7252 45.0424 20.5729 44.4124 20.4362C44.3365 20.4197 44.2583 20.405 44.1819 20.3889C44.9183 18.7803 45.3482 17.0331 45.429 15.2295C45.4542 14.6674 45.019 14.1913 44.4568 14.1663C43.8962 14.1384 43.4186 14.5762 43.3936 15.1384C43.2608 18.1039 42.0306 20.8942 39.9298 22.9952C38.6746 24.2504 37.2049 25.1622 35.6385 25.7364C32.922 25.3552 30.1551 25.3552 27.4386 25.7364C25.8721 25.1622 24.4025 24.2504 23.1473 22.9952C20.9059 20.7538 19.6715 17.7737 19.6715 14.6039C19.6715 11.434 20.9059 8.45404 23.1473 6.21268C25.3887 3.97117 28.3689 2.73674 31.5386 2.73674C34.7082 2.73674 37.6884 3.97117 39.9298 6.21268C40.8305 7.11338 41.5748 8.14123 42.1421 9.26738C42.3951 9.76996 43.0078 9.9723 43.5102 9.7191C44.0128 9.46617 44.215 8.85353 43.9619 8.35109C43.2971 7.03053 42.4252 5.82644 41.3707 4.7718C38.7444 2.14557 35.2527 0.699219 31.5387 0.699219C27.8247 0.699219 24.3329 2.14557 21.7067 4.7718C19.0805 7.39816 17.6341 10.8898 17.6341 14.6038C17.6341 18.3178 19.0805 21.8095 21.7067 24.4358C22.4643 25.1933 23.2884 25.8448 24.1601 26.3906C24.1604 26.3906 24.1607 26.3904 24.1609 26.3904C23.5275 26.5551 22.8989 26.7399 22.2772 26.9477C21.7436 27.1261 21.4557 27.7032 21.6341 28.237C21.8124 28.7706 22.3897 29.0585 22.9232 28.8802C28.4789 27.0229 34.5985 27.0229 40.1542 28.8802C40.2613 28.916 40.3702 28.933 40.4772 28.933C40.9034 28.933 41.3007 28.6634 41.4433 28.237C41.6217 27.7034 41.3338 27.1261 40.8002 26.9477C40.1785 26.7399 39.5499 26.5549 38.9164 26.3904C38.9167 26.3904 38.917 26.3906 38.9173 26.3906C39.7891 25.8448 40.6131 25.1933 41.3707 24.4358C42.0409 23.7656 42.6325 23.0337 43.1461 22.2559C43.4269 22.3105 43.7057 22.3676 43.9804 22.4272C44.3462 22.5067 44.7104 22.592 45.0714 22.6815C45.06 22.7258 45.0484 22.77 45.039 22.815C44.5421 25.1727 44.5744 27.2579 45.1348 29.0124C45.6385 30.5895 46.5475 31.8671 47.8364 32.8101C49.3555 33.9213 51.1894 34.4013 52.8507 34.4013C54.101 34.4013 55.2537 34.1293 56.1002 33.6498C57.0578 33.1074 57.8601 31.9646 58.4951 30.2488C58.7887 30.5914 59.0669 30.9424 59.3291 31.3017C60.3924 32.7583 61.2041 34.3636 61.7416 36.0729C62.0573 37.0768 62.841 37.8668 63.8378 38.1863L66.7051 39.1047C67.4574 39.3458 67.9629 40.0383 67.9629 40.8282V45.5826C67.9629 46.3726 67.4574 47.0651 66.7051 47.3061L62.0855 48.7858C61.3464 49.0227 60.7209 49.5306 60.3243 50.2161C58.5093 53.3527 55.6559 55.9484 51.8427 57.9309C51.4021 58.1602 51.097 58.5702 51.0051 59.0561L49.5255 66.8905C49.4847 67.1064 49.2956 67.2629 49.0759 67.2629H44.2652C44.0454 67.2629 43.8564 67.1062 43.8155 66.8905L42.996 62.5608C42.8347 61.7089 42.0357 61.143 41.1757 61.2733C39.1035 61.5866 36.9682 61.7454 34.8295 61.7454C33.2384 61.7454 31.6676 61.6566 30.1606 61.4815C29.3273 61.3857 28.551 61.9537 28.3953 62.7765L27.6165 66.8905C27.5756 67.1064 27.3865 67.2629 27.1668 67.2629H22.3561C22.1364 67.2629 21.9473 67.1062 21.9059 66.8872L20.4813 59.4877C20.3896 59.011 20.0901 58.6056 19.6593 58.3755C13.1592 54.9055 9.72344 49.108 9.72344 41.6104C9.72344 37.8222 10.5522 34.4724 12.1867 31.6538C13.7119 29.0235 15.9396 26.8487 18.8078 25.1896C19.2948 24.9079 19.4612 24.2847 19.1796 23.7976C18.8979 23.3106 18.2748 23.1445 17.7877 23.4258C12.2261 26.6431 8.87168 31.6065 7.94814 37.9106V37.9105C7.85012 37.9016 7.75195 37.8931 7.6542 37.883C7.67197 37.2029 7.54893 36.5165 7.28096 35.8504C6.68992 34.3812 5.47586 33.3209 4.18783 33.149C3.17283 33.0131 2.20691 33.444 1.53658 34.3297C0.564648 35.614 0.723105 36.6304 1.02703 37.2569C1.54014 38.3141 2.85906 39.062 5.04779 39.5321C4.98764 39.6222 4.92146 39.7127 4.849 39.8036C3.55578 41.4255 2.03219 41.7842 1.04289 41.8179C0.46375 41.8375 0 42.3025 0 42.882V42.8869C0 43.4585 0.451035 43.9248 1.02211 43.9509C1.09525 43.9543 1.17168 43.9561 1.25125 43.9561C2.50305 43.9561 4.51213 43.4944 6.44232 41.074C6.74707 40.692 6.99535 40.289 7.18621 39.8726C7.37844 39.8943 7.56314 39.9129 7.74006 39.9293C7.74006 39.9289 7.74006 39.9286 7.7402 39.9282C7.70547 40.4803 7.68619 41.0404 7.68619 41.6104C7.68619 45.8525 8.6975 49.6348 10.6918 52.8528C12.5307 55.8196 15.1635 58.2488 18.5196 60.0756L19.9046 67.2692C20.1273 68.4461 21.1583 69.3003 22.3561 69.3003H27.1668C28.3646 69.3003 29.3956 68.4461 29.6183 67.2692L30.3224 63.5494C31.7848 63.7043 33.2988 63.7827 34.8294 63.7827C36.9294 63.7827 39.0269 63.6365 41.0711 63.3477L41.8134 67.2695C42.0362 68.4464 43.0672 69.3004 44.2649 69.3004H49.0756C50.2734 69.3004 51.3044 68.4462 51.5272 67.2689L52.9678 59.6413C57.0377 57.4892 60.1054 54.6621 62.0875 51.2365C62.2304 50.9896 62.4504 50.8084 62.7069 50.7262L67.3263 49.2465C68.9255 48.734 70 47.2617 70 45.5823V40.8279C70 39.1488 68.9255 37.6764 67.3263 37.1642ZM57.5966 25.0568C57.2045 28.4099 56.1527 31.2783 55.0959 31.8768C53.8947 32.5573 51.1213 32.6887 49.0391 31.1655C46.9544 29.6405 46.2606 26.8982 47.0323 23.235C47.0323 23.2348 47.0323 23.2348 47.0323 23.2348C47.1099 22.8669 47.3713 22.5486 47.7315 22.3838C52.8317 20.0492 55.7721 19.2856 56.8645 19.2856C57.0294 19.2856 57.1521 19.3029 57.2339 19.3349C57.562 19.6847 57.9924 21.6727 57.5966 25.0568ZM2.86029 36.3672C2.75488 36.1498 3.00371 35.7677 3.16148 35.5591C3.41154 35.2288 3.64191 35.1612 3.81596 35.1612C3.85273 35.1612 3.88705 35.1642 3.9185 35.1685C4.38689 35.231 5.04314 35.7464 5.39082 36.6106C5.47271 36.814 5.57908 37.151 5.60396 37.5713C4.19371 37.2791 3.09805 36.8579 2.86029 36.3672Z" fill="url(#paint1_linear)"/>
<path d="M32.5278 13.4363V9.79083C33.7849 9.88065 34.252 10.4553 34.6829 10.4553C35.2217 10.4553 35.4731 9.77292 35.4731 9.43167C35.4731 8.55161 33.749 8.17454 32.5278 8.13858V7.65351C32.5278 7.43804 32.2583 7.24048 31.989 7.24048C31.6836 7.24048 31.4681 7.43804 31.4681 7.65351V8.17427C29.762 8.35392 28.0559 9.25188 28.0559 11.5147C28.0559 13.8135 29.8518 14.46 31.4681 15.0347V19.255C29.6362 19.1114 29.1514 17.8542 28.5587 17.8542C28.1097 17.8542 27.7327 18.4469 27.7327 18.878C27.7327 19.7579 29.2412 20.9612 31.4681 20.9971V21.5538C31.4681 21.7693 31.6837 21.9669 31.989 21.9669C32.2585 21.9669 32.5278 21.7693 32.5278 21.5538V20.9433C34.4674 20.6738 35.7963 19.4526 35.7963 17.2436C35.7963 14.8013 34.0902 14.0109 32.5278 13.4363ZM31.5758 13.0952C30.624 12.736 29.8518 12.359 29.8518 11.3353C29.8518 10.4014 30.5701 9.95243 31.5758 9.82679V13.0952ZM32.4199 19.2191V15.4298C33.2999 15.8069 34.0003 16.3097 34.0003 17.4411C34.0003 18.465 33.3897 19.0396 32.4199 19.2191Z" fill="url(#paint2_linear)"/>
<defs>
<linearGradient id="paint0_linear" x1="55.452" y1="36.9978" x2="55.452" y2="41.3474" gradientUnits="userSpaceOnUse">
<stop stop-color="#E85FB1"/>
<stop offset="1" stop-color="#C447FF"/>
</linearGradient>
<linearGradient id="paint1_linear" x1="35" y1="0.699219" x2="35" y2="69.3004" gradientUnits="userSpaceOnUse">
<stop stop-color="#E85FB1"/>
<stop offset="1" stop-color="#C447FF"/>
</linearGradient>
<linearGradient id="paint2_linear" x1="31.7645" y1="7.24048" x2="31.7645" y2="21.9669" gradientUnits="userSpaceOnUse">
<stop stop-color="#E85FB1"/>
<stop offset="1" stop-color="#C447FF"/>
</linearGradient>
</defs>
</svg>
