<svg width="70" height="70" viewBox="0 0 70 70" fill="none" xmlns="http://www.w3.org/2000/svg">
<path d="M67.3263 37.1643L64.4591 36.2458C64.0918 36.1281 63.8024 35.835 63.685 35.4616C63.0807 33.5403 62.1687 31.7365 60.9745 30.1003C60.4302 29.3545 59.825 28.6423 59.1638 27.9643C59.5868 26.1087 59.8168 24.0085 59.787 22.1941C59.7443 19.5985 59.2256 18.0762 58.2013 17.5397C57.6496 17.2504 55.9707 16.3715 46.8835 20.5313C46.6683 20.6298 46.4673 20.7511 46.2812 20.89C45.6686 20.7254 45.0424 20.573 44.4124 20.4363C44.3365 20.4198 44.2583 20.4052 44.1819 20.389C44.9183 18.7804 45.3482 17.0333 45.429 15.2297C45.4542 14.6675 45.019 14.1914 44.4568 14.1664C43.8962 14.1385 43.4186 14.5763 43.3936 15.1385C43.2608 18.104 42.0306 20.8943 39.9298 22.9953C38.6746 24.2505 37.2049 25.1623 35.6385 25.7365C32.922 25.3553 30.1551 25.3553 27.4386 25.7365C25.8721 25.1623 24.4025 24.2505 23.1473 22.9953C20.9059 20.7539 19.6715 17.7739 19.6715 14.604C19.6715 11.4341 20.9059 8.45416 23.1473 6.2128C25.3887 3.97129 28.3689 2.73686 31.5386 2.73686C34.7082 2.73686 37.6884 3.97129 39.9298 6.2128C40.8305 7.1135 41.5748 8.14135 42.1421 9.2675C42.3951 9.77008 43.0078 9.97243 43.5102 9.71922C44.0128 9.46629 44.215 8.85366 43.9619 8.35122C43.2971 7.03065 42.4252 5.82657 41.3707 4.77192C38.7444 2.14569 35.2527 0.699341 31.5387 0.699341C27.8247 0.699341 24.3329 2.14569 21.7067 4.77192C19.0805 7.39829 17.6341 10.8899 17.6341 14.6039C17.6341 18.3179 19.0805 21.8097 21.7067 24.4359C22.4643 25.1935 23.2884 25.8449 24.1601 26.3907C24.1604 26.3907 24.1607 26.3906 24.1609 26.3906C23.5275 26.5552 22.8989 26.74 22.2772 26.9478C21.7436 27.1263 21.4557 27.7033 21.6341 28.2371C21.8124 28.7707 22.3897 29.0586 22.9232 28.8804C28.4789 27.023 34.5985 27.023 40.1542 28.8804C40.2613 28.9162 40.3702 28.9331 40.4772 28.9331C40.9034 28.9331 41.3007 28.6635 41.4433 28.2371C41.6217 27.7035 41.3338 27.1263 40.8002 26.9478C40.1785 26.74 39.5499 26.555 38.9164 26.3906C38.9167 26.3906 38.917 26.3907 38.9173 26.3907C39.7891 25.8449 40.6131 25.1935 41.3707 24.4359C42.0409 23.7657 42.6325 23.0338 43.1461 22.2561C43.4269 22.3106 43.7057 22.3678 43.9804 22.4274C44.3462 22.5068 44.7104 22.5921 45.0714 22.6817C45.06 22.726 45.0484 22.7701 45.039 22.8151C44.5421 25.1728 44.5744 27.258 45.1348 29.0126C45.6385 30.5896 46.5475 31.8672 47.8364 32.8102C49.3555 33.9214 51.1894 34.4015 52.8507 34.4015C54.101 34.4015 55.2537 34.1294 56.1002 33.6499C57.0578 33.1076 57.8601 31.9647 58.4951 30.2489C58.7887 30.5915 59.0669 30.9425 59.3291 31.3018C60.3924 32.7584 61.2041 34.3637 61.7416 36.073C62.0573 37.0769 62.841 37.8669 63.8378 38.1864L66.7051 39.1049C67.4574 39.3459 67.9629 40.0384 67.9629 40.8283V45.5827C67.9629 46.3727 67.4574 47.0652 66.7051 47.3062L62.0855 48.7859C61.3464 49.0229 60.7209 49.5308 60.3243 50.2163C58.5093 53.3529 55.6559 55.9485 51.8427 57.931C51.4021 58.1603 51.097 58.5703 51.0051 59.0562L49.5255 66.8906C49.4847 67.1065 49.2956 67.263 49.0759 67.263H44.2652C44.0454 67.263 43.8564 67.1064 43.8155 66.8906L42.996 62.5609C42.8347 61.709 42.0357 61.1431 41.1757 61.2734C39.1035 61.5868 36.9682 61.7455 34.8295 61.7455C33.2384 61.7455 31.6676 61.6568 30.1606 61.4816C29.3273 61.3858 28.551 61.9538 28.3953 62.7766L27.6165 66.8906C27.5756 67.1065 27.3865 67.263 27.1668 67.263H22.3561C22.1364 67.263 21.9473 67.1064 21.9059 66.8873L20.4813 59.4879C20.3896 59.0111 20.0901 58.6057 19.6593 58.3756C13.1592 54.9056 9.72344 49.1082 9.72344 41.6105C9.72344 37.8223 10.5522 34.4726 12.1867 31.654C13.7119 29.0236 15.9396 26.8488 18.8078 25.1898C19.2948 24.908 19.4612 24.2848 19.1796 23.7977C18.8979 23.3107 18.2748 23.1446 17.7877 23.426C12.2261 26.6432 8.87168 31.6067 7.94814 37.9108V37.9106C7.85012 37.9017 7.75195 37.8933 7.6542 37.8831C7.67197 37.203 7.54893 36.5166 7.28096 35.8506C6.68992 34.3814 5.47586 33.321 4.18783 33.1491C3.17283 33.0132 2.20691 33.4442 1.53658 34.3298C0.564648 35.6142 0.723105 36.6305 1.02703 37.257C1.54014 38.3142 2.85906 39.0621 5.04779 39.5322C4.98764 39.6223 4.92146 39.7129 4.849 39.8038C3.55578 41.4257 2.03219 41.7843 1.04289 41.818C0.46375 41.8376 0 42.3026 0 42.8821V42.8871C0 43.4587 0.451035 43.9249 1.02211 43.951C1.09525 43.9544 1.17168 43.9562 1.25125 43.9562C2.50305 43.9562 4.51213 43.4945 6.44232 41.0742C6.74707 40.6922 6.99535 40.2891 7.18621 39.8727C7.37844 39.8944 7.56314 39.913 7.74006 39.9294C7.74006 39.929 7.74006 39.9287 7.7402 39.9283C7.70547 40.4804 7.68619 41.0405 7.68619 41.6105C7.68619 45.8526 8.6975 49.6349 10.6918 52.8529C12.5307 55.8197 15.1635 58.2489 18.5196 60.0757L19.9046 67.2693C20.1273 68.4462 21.1583 69.3004 22.3561 69.3004H27.1668C28.3646 69.3004 29.3956 68.4462 29.6183 67.2693L30.3224 63.5495C31.7848 63.7044 33.2988 63.7829 34.8294 63.7829C36.9294 63.7829 39.0269 63.6366 41.0711 63.3478L41.8134 67.2696C42.0362 68.4465 43.0672 69.3006 44.2649 69.3006H49.0756C50.2734 69.3006 51.3044 68.4463 51.5272 67.2691L52.9678 59.6414C57.0377 57.4893 60.1054 54.6622 62.0875 51.2366C62.2304 50.9897 62.4504 50.8085 62.7069 50.7264L67.3263 49.2467C68.9255 48.7341 70 47.2618 70 45.5825V40.8281C70 39.1489 68.9255 37.6766 67.3263 37.1643ZM57.5966 25.0569C57.2045 28.41 56.1527 31.2784 55.0959 31.877C53.8947 32.5574 51.1213 32.6888 49.0391 31.1656C46.9544 29.6406 46.2606 26.8983 47.0323 23.2351C47.0323 23.235 47.0323 23.235 47.0323 23.235C47.1099 22.8671 47.3713 22.5488 47.7315 22.3839C52.8317 20.0493 55.7721 19.2857 56.8645 19.2857C57.0294 19.2857 57.1521 19.3031 57.2339 19.3351C57.562 19.6848 57.9924 21.6728 57.5966 25.0569ZM2.86029 36.3673C2.75488 36.15 3.00371 35.7678 3.16148 35.5592C3.41154 35.2289 3.64191 35.1613 3.81596 35.1613C3.85273 35.1613 3.88705 35.1644 3.9185 35.1686C4.38689 35.2311 5.04314 35.7465 5.39082 36.6107C5.47271 36.8141 5.57908 37.1512 5.60396 37.5714C4.19371 37.2793 3.09805 36.858 2.86029 36.3673Z" fill="#262424"/>
</svg>
