<svg width="17" height="17" viewBox="0 0 17 17" fill="none" xmlns="http://www.w3.org/2000/svg">
<path d="M6.60724 0C2.9585 0 0 2.9585 0 6.60726C0 10.256 2.9585 13.2145 6.60726 13.2145C8.01035 13.2145 9.31157 12.7769 10.3812 12.0314L10.382 12.0307L15.2822 16.9309C15.3731 17.0219 15.5177 17.0242 15.611 16.9309L16.9317 15.6102C17.0226 15.5193 17.018 15.3685 16.9309 15.2814L12.0314 10.382C12.7769 9.31157 13.2145 8.01033 13.2145 6.60726C13.2145 2.9585 10.256 0 6.60724 0ZM6.60724 11.6599C3.81663 11.6599 1.55463 9.39787 1.55463 6.60726C1.55463 3.81666 3.81666 1.55465 6.60724 1.55465C9.39781 1.55465 11.6598 3.81666 11.6598 6.60726C11.6598 9.39787 9.39784 11.6599 6.60724 11.6599Z" fill="white"/>
</svg>
