<svg width="70" height="70" viewBox="0 0 70 70" fill="none" xmlns="http://www.w3.org/2000/svg">
<path d="M65.9535 24.3874C65.9535 18.0335 61.1504 14.1473 56.1242 14.1473H54.3347V6.49155C54.3347 4.93173 53.0658 3.66284 51.506 3.66284H50.8898V1.16089C50.8898 0.5946 50.4307 0.135498 49.8644 0.135498C49.2981 0.135498 48.839 0.5946 48.839 1.16089V3.66284H48.222C46.6622 3.66284 45.3933 4.93187 45.3933 6.49155V14.1473H15.1533C14.587 14.1473 14.1279 14.6064 14.1279 15.1726C14.1279 15.7389 14.587 16.198 15.1533 16.198H56.1242C60.4134 16.198 63.9027 19.6915 63.9027 23.9854V60.0239C63.9027 62.7796 62.4931 65.2752 60.1324 66.6994C59.2424 67.2363 59.6322 68.6029 60.663 68.6029C61.5719 68.6029 65.9534 65.5207 65.9535 60.0239V37.5193C68.5063 37.0477 70 34.8416 70 32.6992V29.2074C70 27.0651 68.5064 24.859 65.9535 24.3874ZM52.2839 14.1473H47.4441V6.49155C47.4441 6.06253 47.793 5.71362 48.222 5.71362H51.506C51.9349 5.71362 52.2839 6.06267 52.2839 6.49155V14.1473ZM67.9492 32.6992C67.9492 33.8215 67.2564 35.0004 65.9535 35.4107V26.496C67.2563 26.9061 67.9492 28.0851 67.9492 29.2075V32.6992Z" fill="url(#paint0_linear)"/>
<path d="M56.7142 67.7894C56.2771 67.8222 58.5158 67.8114 21.7619 67.8114V50.7273H29.0467C29.613 50.7273 30.0721 50.2682 30.0721 49.7019C30.0721 49.1356 29.613 48.6765 29.0467 48.6765H4.66115C2.09098 48.6765 0 50.7691 0 53.3414V65.1975C0 67.7696 2.09098 69.8623 4.66115 69.8623C59.7677 69.8623 56.3165 69.8758 56.8676 69.8346C57.4323 69.7922 57.8558 69.3001 57.8134 68.7353C57.771 68.1706 57.2778 67.7474 56.7142 67.7894ZM7.27904 50.7273H14.2529V52.767H7.27904V50.7273ZM19.7112 67.8114H4.66115C3.22178 67.8114 2.05078 66.6388 2.05078 65.1973V53.3412C2.05078 51.8999 3.22178 50.7272 4.66115 50.7272H5.22826V53.1606C5.22826 54.0743 5.97543 54.8176 6.89391 54.8176H14.6381C15.5565 54.8176 16.3037 54.0743 16.3037 53.1606V50.7272H19.7112V67.8114Z" fill="url(#paint1_linear)"/>
<path d="M4.14654 33.253V35.8961C4.14654 37.241 5.24016 38.3351 6.58424 38.3351H9.67531V45.0096C9.67531 45.5759 10.1344 46.035 10.7007 46.035C11.267 46.035 11.7261 45.5759 11.7261 45.0096V38.3351H14.8172C16.1612 38.3351 17.2549 37.241 17.2549 35.8961V33.282H19.3815C20.3729 33.282 21.2488 32.6859 21.6132 31.7635L22.9693 28.3299C23.0223 28.1955 23.1496 28.1087 23.2936 28.1087H35.7369C42.4866 28.1087 47.9779 33.6059 47.9779 40.3629V45.9118C47.9779 47.4361 46.7395 48.6763 45.2174 48.6763H33.1486C32.5823 48.6763 32.1232 49.1354 32.1232 49.7016C32.1232 50.2679 32.5823 50.727 33.1486 50.727H45.2174C47.8704 50.727 50.0287 48.567 50.0287 45.9118V40.3629C50.0287 32.4751 43.6174 26.0579 35.7369 26.0579H23.2936C22.3024 26.0579 21.4263 26.654 21.0619 27.5764L19.7058 31.01C19.6528 31.1444 19.5255 31.2312 19.3815 31.2312H4.66115C3.22178 31.2312 2.05078 30.0586 2.05078 28.6172V18.8118C2.05078 17.3705 3.22178 16.1978 4.66115 16.1978H11.0518C11.6181 16.1978 12.0772 15.7387 12.0772 15.1724C12.0772 14.6061 11.6181 14.147 11.0518 14.147H4.66115C2.09098 14.1472 0 16.2399 0 18.8121V28.6174C0 31.0155 1.81768 32.9958 4.14654 33.253ZM6.19732 33.2821H15.2039V35.8962C15.2039 36.1103 15.0303 36.2845 14.817 36.2845H6.58424C6.37096 36.2845 6.19732 36.1103 6.19732 35.8962V33.2821Z" fill="url(#paint2_linear)"/>
<path d="M54.4767 20.8591C51.5278 20.8591 49.1287 23.2603 49.1287 26.2115C49.1287 29.1627 51.5278 31.5639 54.4767 31.5639C57.4256 31.5639 59.8247 29.1629 59.8247 26.2115C59.8247 23.2602 57.4256 20.8591 54.4767 20.8591ZM54.4767 29.5133C52.6586 29.5133 51.1794 28.0322 51.1794 26.2117C51.1794 24.3911 52.6586 22.91 54.4767 22.91C56.2948 22.91 57.7739 24.3911 57.7739 26.2117C57.7739 28.0322 56.2948 29.5133 54.4767 29.5133Z" fill="url(#paint3_linear)"/>
<defs>
<linearGradient id="paint0_linear" x1="42.0639" y1="0.135498" x2="42.0639" y2="68.6029" gradientUnits="userSpaceOnUse">
<stop stop-color="#E85FB1"/>
<stop offset="1" stop-color="#C447FF"/>
</linearGradient>
<linearGradient id="paint1_linear" x1="28.9082" y1="48.6765" x2="28.9082" y2="69.8644" gradientUnits="userSpaceOnUse">
<stop stop-color="#E85FB1"/>
<stop offset="1" stop-color="#C447FF"/>
</linearGradient>
<linearGradient id="paint2_linear" x1="25.0143" y1="14.147" x2="25.0143" y2="50.727" gradientUnits="userSpaceOnUse">
<stop stop-color="#E85FB1"/>
<stop offset="1" stop-color="#C447FF"/>
</linearGradient>
<linearGradient id="paint3_linear" x1="54.4767" y1="20.8591" x2="54.4767" y2="31.5639" gradientUnits="userSpaceOnUse">
<stop stop-color="#E85FB1"/>
<stop offset="1" stop-color="#C447FF"/>
</linearGradient>
</defs>
</svg>
