<svg width="70" height="70" viewBox="0 0 70 70" fill="none" xmlns="http://www.w3.org/2000/svg">
<path d="M65.9535 24.3875C65.9535 18.0336 61.1505 14.1474 56.1243 14.1474H54.3348V6.49168C54.3348 4.93185 53.0659 3.66296 51.506 3.66296H50.8899V1.16101C50.8899 0.594722 50.4307 0.13562 49.8645 0.13562C49.2982 0.13562 48.8391 0.594722 48.8391 1.16101V3.66296H48.2221C46.6622 3.66296 45.3933 4.93199 45.3933 6.49168V14.1474H15.1534C14.5871 14.1474 14.128 14.6065 14.128 15.1728C14.128 15.7391 14.5871 16.1982 15.1534 16.1982H56.1243C60.4134 16.1982 63.9027 19.6916 63.9027 23.9855V60.024C63.9027 62.7798 62.4932 65.2753 60.1324 66.6995C59.2424 67.2364 59.6322 68.603 60.6631 68.603C61.572 68.603 65.9534 65.5208 65.9535 60.024V37.5195C68.5063 37.0478 70 34.8417 70 32.6993V29.2075C70 27.0653 68.5065 24.8592 65.9535 24.3875ZM52.284 14.1474H47.4441V6.49168C47.4441 6.06265 47.793 5.71375 48.2221 5.71375H51.506C51.9349 5.71375 52.284 6.06279 52.284 6.49168V14.1474ZM67.9492 32.6993C67.9492 33.8216 67.2565 35.0005 65.9535 35.4108V26.4961C67.2563 26.9062 67.9492 28.0852 67.9492 29.2076V32.6993Z" fill="#262424"/>
<path d="M56.7142 67.7894C56.2771 67.8222 58.5158 67.8114 21.7619 67.8114V50.7273H29.0467C29.613 50.7273 30.0721 50.2682 30.0721 49.7019C30.0721 49.1356 29.613 48.6765 29.0467 48.6765H4.66115C2.09098 48.6765 0 50.7691 0 53.3414V65.1975C0 67.7696 2.09098 69.8623 4.66115 69.8623C59.7677 69.8623 56.3165 69.8758 56.8676 69.8346C57.4323 69.7922 57.8558 69.3001 57.8134 68.7353C57.771 68.1706 57.2778 67.7474 56.7142 67.7894ZM7.27904 50.7273H14.2529V52.767H7.27904V50.7273ZM19.7112 67.8114H4.66115C3.22178 67.8114 2.05078 66.6388 2.05078 65.1973V53.3412C2.05078 51.8999 3.22178 50.7272 4.66115 50.7272H5.22826V53.1606C5.22826 54.0743 5.97543 54.8176 6.89391 54.8176H14.6381C15.5565 54.8176 16.3037 54.0743 16.3037 53.1606V50.7272H19.7112V67.8114Z" fill="#262424"/>
<path d="M4.14654 33.2531V35.8962C4.14654 37.2411 5.24016 38.3352 6.58424 38.3352H9.67531V45.0097C9.67531 45.576 10.1344 46.0351 10.7007 46.0351C11.267 46.0351 11.7261 45.576 11.7261 45.0097V38.3352H14.8172C16.1612 38.3352 17.2549 37.2411 17.2549 35.8962V33.2821H19.3815C20.3729 33.2821 21.2488 32.686 21.6132 31.7636L22.9693 28.33C23.0223 28.1956 23.1496 28.1088 23.2936 28.1088H35.7369C42.4866 28.1088 47.9779 33.606 47.9779 40.3631V45.9119C47.9779 47.4362 46.7395 48.6764 45.2174 48.6764H33.1486C32.5823 48.6764 32.1232 49.1355 32.1232 49.7018C32.1232 50.2681 32.5823 50.7272 33.1486 50.7272H45.2174C47.8704 50.7272 50.0287 48.5671 50.0287 45.9119V40.3631C50.0287 32.4752 43.6174 26.058 35.7369 26.058H23.2936C22.3024 26.058 21.4263 26.6541 21.0619 27.5766L19.7058 31.0101C19.6528 31.1445 19.5255 31.2313 19.3815 31.2313H4.66115C3.22178 31.2313 2.05078 30.0587 2.05078 28.6173V18.8119C2.05078 17.3706 3.22178 16.1979 4.66115 16.1979H11.0518C11.6181 16.1979 12.0772 15.7388 12.0772 15.1725C12.0772 14.6062 11.6181 14.1471 11.0518 14.1471H4.66115C2.09098 14.1474 0 16.24 0 18.8122V28.6175C0 31.0156 1.81768 32.996 4.14654 33.2531ZM6.19732 33.2823H15.2039V35.8963C15.2039 36.1104 15.0303 36.2846 14.817 36.2846H6.58424C6.37096 36.2846 6.19732 36.1104 6.19732 35.8963V33.2823Z" fill="#262424"/>
<path d="M54.4767 20.8591C51.5278 20.8591 49.1287 23.2603 49.1287 26.2115C49.1287 29.1627 51.5278 31.5639 54.4767 31.5639C57.4256 31.5639 59.8247 29.1628 59.8247 26.2115C59.8247 23.2601 57.4256 20.8591 54.4767 20.8591ZM54.4767 29.5132C52.6586 29.5132 51.1794 28.0322 51.1794 26.2116C51.1794 24.3911 52.6586 22.91 54.4767 22.91C56.2948 22.91 57.7739 24.3911 57.7739 26.2116C57.7739 28.0322 56.2948 29.5132 54.4767 29.5132Z" fill="#262424"/>
</svg>
