<svg width="70" height="70" viewBox="0 0 70 70" fill="none" xmlns="http://www.w3.org/2000/svg">
<path d="M36.9064 44.3205C38.1209 44.226 39.228 43.6065 39.9467 42.6183L50.8702 27.517C51.205 27.0538 51.1549 26.4145 50.7489 26.0085C50.3429 25.6037 49.7035 25.5535 49.2404 25.8872L34.1367 36.8142C33.152 37.5305 32.5325 38.6377 32.438 39.8522C32.3435 41.0667 32.7834 42.2555 33.6432 43.1153C34.426 43.8993 35.4819 44.3333 36.5797 44.3333C36.6882 44.3333 36.7967 44.3287 36.9064 44.3205ZM34.7644 40.0342C34.8052 39.501 35.0782 39.0145 35.5075 38.7018L44.7207 32.0367L38.0579 41.2475C37.7429 41.6803 37.2564 41.9522 36.7232 41.9942C36.1924 42.0292 35.6709 41.8448 35.2917 41.4657C34.916 41.0888 34.7224 40.5662 34.7644 40.0342Z" fill="#262424"/>
<path d="M63.0397 22.8247C63.028 22.8002 63.028 22.7745 63.0152 22.75C63.0012 22.7267 62.9791 22.7138 62.9639 22.6917C61.7844 20.6687 60.389 18.7868 58.8047 17.0812L61.3107 14.5763L62.9604 16.226L67.9094 11.2758L62.9604 6.32683L58.0102 11.2758L59.6611 12.9267L57.1551 15.4315C55.4494 13.8472 53.5687 12.4507 51.5445 11.2712C51.5224 11.256 51.5096 11.2338 51.4862 11.2198C51.4617 11.2058 51.4361 11.207 51.4116 11.1942C47.8031 9.11517 43.7489 7.73033 39.4264 7.22283V5.83333H41.1764C42.7852 5.83333 44.0931 4.5255 44.0931 2.91667C44.0931 1.30783 42.784 0 41.1752 0H30.6752C29.0664 0 27.7586 1.30783 27.7586 2.91667C27.7586 4.5255 29.0664 5.83333 30.6752 5.83333H32.4252V7.182C31.1652 7.31617 29.9076 7.5215 28.6639 7.80617C28.0362 7.94967 27.6431 8.57617 27.7877 9.20383C27.9312 9.8315 28.5577 10.2258 29.1854 10.08C30.2587 9.83383 31.3426 9.64833 32.4287 9.5235L33.6806 9.42667C34.0632 9.3975 34.4156 9.3765 34.7586 9.36017V11.6667C34.7586 12.3118 35.2801 12.8333 35.9252 12.8333C36.5704 12.8333 37.0919 12.3118 37.0919 11.6667V9.36833C41.4797 9.57017 45.6144 10.7485 49.2906 12.6875L48.1402 14.679C47.8182 15.2378 48.0096 15.9507 48.5672 16.2727C48.7504 16.3788 48.951 16.429 49.1494 16.429C49.553 16.429 49.945 16.2202 50.1609 15.8457L51.3077 13.8588C54.9582 16.1747 58.0592 19.2757 60.375 22.9262L58.3882 24.073C57.8317 24.395 57.6404 25.1078 57.9635 25.6667C58.1805 26.0412 58.5714 26.25 58.975 26.25C59.1734 26.25 59.3741 26.1998 59.5572 26.0937L61.5487 24.9433C63.5145 28.672 64.6964 32.8743 64.8726 37.3322H62.5684C61.9232 37.3322 61.4017 37.8537 61.4017 38.4988C61.4017 39.144 61.9232 39.6655 62.5684 39.6655H64.8726C64.6964 44.1233 63.5145 48.3257 61.5487 52.0543L59.5572 50.904C58.9995 50.582 58.2855 50.771 57.9635 51.331C57.6415 51.8898 57.8329 52.6027 58.3906 52.9247L60.3774 54.0715C58.0615 57.722 54.9606 60.823 51.31 63.1388L50.1632 61.152C49.8401 60.592 49.1249 60.4018 48.5696 60.725C48.0107 61.047 47.8194 61.761 48.1425 62.3187L49.2929 64.3102C45.6167 66.2492 41.4821 67.4275 37.0942 67.6293V65.3333C37.0942 64.6882 36.5727 64.1667 35.9276 64.1667C35.2824 64.1667 34.7609 64.6882 34.7609 65.3333V67.6387C32.8977 67.5745 31.0287 67.3412 29.1889 66.9188C28.5612 66.7683 27.9347 67.1673 27.7912 67.795C27.6466 68.4227 28.0397 69.0492 28.6674 69.1927C30.9961 69.7293 33.3749 70 35.7351 70C35.7922 70 35.8471 69.9965 35.9042 69.9953C35.9124 69.9953 35.9182 70 35.9252 70C35.9346 70 35.9427 69.9942 35.9521 69.9942C41.5602 69.9557 46.8219 68.4413 51.3742 65.8257C51.4104 65.8093 51.4489 65.8012 51.4839 65.7802C51.5072 65.7662 51.5201 65.744 51.5422 65.7288C56.2544 62.9825 60.1919 59.0497 62.944 54.341C62.9662 54.3095 62.9942 54.285 63.014 54.25C63.028 54.2255 63.0269 54.1998 63.0386 54.1753C65.7032 49.5553 67.2351 44.205 67.2351 38.5C67.2351 32.795 65.7032 27.4447 63.0397 22.8247ZM62.9592 9.62617L64.6089 11.2758L62.9592 12.9267L61.3084 11.2758L62.9592 9.62617ZM34.7586 7.0245V3.5H30.6752C30.3544 3.5 30.0919 3.2375 30.0919 2.91667C30.0919 2.59583 30.3544 2.33333 30.6752 2.33333H41.1752C41.496 2.33333 41.7585 2.59583 41.7585 2.91667C41.7585 3.2375 41.496 3.5 41.1752 3.5H37.0919V7.0245C36.6859 7.00817 36.2986 7 35.9252 7C35.8926 7 35.8552 7.00233 35.8226 7.00233C35.7934 7.00233 35.7642 7 35.7351 7C35.5437 7 35.3524 7.01283 35.1611 7.01633C35.0257 7.01983 34.8986 7.01867 34.7586 7.0245Z" fill="#262424"/>
<path d="M25.4252 16.3333H19.5918C18.9467 16.3333 18.4252 16.8548 18.4252 17.5C18.4252 18.1451 18.9467 18.6666 19.5918 18.6666H25.4252C26.0703 18.6666 26.5918 18.1451 26.5918 17.5C26.5918 16.8548 26.0703 16.3333 25.4252 16.3333Z" fill="#262424"/>
<path d="M25.4252 24.5H13.7585C13.1134 24.5 12.5919 25.0215 12.5919 25.6667C12.5919 26.3118 13.1134 26.8333 13.7585 26.8333H25.4252C26.0704 26.8333 26.5919 26.3118 26.5919 25.6667C26.5919 25.0215 26.0704 24.5 25.4252 24.5Z" fill="#262424"/>
<path d="M25.4252 32.6667H7.92521C7.28004 32.6667 6.75854 33.1882 6.75854 33.8334C6.75854 34.4785 7.28004 35 7.92521 35H25.4252C26.0704 35 26.5919 34.4785 26.5919 33.8334C26.5919 33.1882 26.0704 32.6667 25.4252 32.6667Z" fill="#262424"/>
<path d="M25.4252 40.8333H3.25852C2.61336 40.8333 2.09186 41.3548 2.09186 42C2.09186 42.6451 2.61336 43.1666 3.25852 43.1666H25.4252C26.0704 43.1666 26.5919 42.6451 26.5919 42C26.5919 41.3548 26.0704 40.8333 25.4252 40.8333Z" fill="#262424"/>
<path d="M25.4252 49H10.2585C9.61336 49 9.09186 49.5215 9.09186 50.1667C9.09186 50.8118 9.61336 51.3333 10.2585 51.3333H25.4252C26.0704 51.3333 26.5919 50.8118 26.5919 50.1667C26.5919 49.5215 26.0704 49 25.4252 49Z" fill="#262424"/>
<path d="M25.4252 57.1667H17.2585C16.6134 57.1667 16.0919 57.6882 16.0919 58.3334C16.0919 58.9785 16.6134 59.5 17.2585 59.5H25.4252C26.0704 59.5 26.5919 58.9785 26.5919 58.3334C26.5919 57.6882 26.0704 57.1667 25.4252 57.1667Z" fill="#262424"/>
</svg>
