<svg width="70" height="70" viewBox="0 0 70 70" fill="none" xmlns="http://www.w3.org/2000/svg">
<path d="M36.9062 44.3206C38.1207 44.2261 39.2279 43.6066 39.9466 42.6184L50.8701 27.5171C51.2049 27.0539 51.1547 26.4146 50.7487 26.0086C50.3427 25.6037 49.7034 25.5536 49.2402 25.8872L34.1366 36.8142C33.1519 37.5306 32.5324 38.6377 32.4379 39.8522C32.3434 41.0667 32.7832 42.2556 33.6431 43.1154C34.4259 43.8994 35.4817 44.3334 36.5796 44.3334C36.6881 44.3334 36.7966 44.3287 36.9062 44.3206ZM34.7642 40.0342C34.8051 39.5011 35.0781 39.0146 35.5074 38.7019L44.7206 32.0367L38.0577 41.2476C37.7427 41.6804 37.2562 41.9522 36.7231 41.9942C36.1922 42.0292 35.6707 41.8449 35.2916 41.4657C34.9159 41.0889 34.7222 40.5662 34.7642 40.0342Z" fill="url(#paint0_linear)"/>
<path d="M63.0398 22.8247C63.0281 22.8002 63.0281 22.7745 63.0153 22.75C63.0013 22.7267 62.9791 22.7138 62.9639 22.6917C61.7844 20.6687 60.3891 18.7868 58.8048 17.0812L61.3108 14.5763L62.9604 16.226L67.9094 11.2758L62.9604 6.32683L58.0103 11.2758L59.6611 12.9267L57.1551 15.4315C55.4494 13.8472 53.5688 12.4507 51.5446 11.2712C51.5224 11.256 51.5096 11.2338 51.4863 11.2198C51.4618 11.2058 51.4361 11.207 51.4116 11.1942C47.8031 9.11517 43.7489 7.73033 39.4264 7.22283V5.83333H41.1764C42.7853 5.83333 44.0931 4.5255 44.0931 2.91667C44.0931 1.30783 42.7841 0 41.1753 0H30.6753C29.0664 0 27.7586 1.30783 27.7586 2.91667C27.7586 4.5255 29.0664 5.83333 30.6753 5.83333H32.4253V7.182C31.1653 7.31617 29.9076 7.5215 28.6639 7.80617C28.0363 7.94967 27.6431 8.57617 27.7878 9.20383C27.9313 9.8315 28.5578 10.2258 29.1854 10.08C30.2588 9.83383 31.3426 9.64833 32.4288 9.5235L33.6806 9.42667C34.0633 9.3975 34.4156 9.3765 34.7586 9.36017V11.6667C34.7586 12.3118 35.2801 12.8333 35.9253 12.8333C36.5704 12.8333 37.0919 12.3118 37.0919 11.6667V9.36833C41.4798 9.57017 45.6144 10.7485 49.2906 12.6875L48.1403 14.679C47.8183 15.2378 48.0096 15.9507 48.5673 16.2727C48.7504 16.3788 48.9511 16.429 49.1494 16.429C49.5531 16.429 49.9451 16.2202 50.1609 15.8457L51.3078 13.8588C54.9583 16.1747 58.0593 19.2757 60.3751 22.9262L58.3883 24.073C57.8318 24.395 57.6404 25.1078 57.9636 25.6667C58.1806 26.0412 58.5714 26.25 58.9751 26.25C59.1734 26.25 59.3741 26.1998 59.5573 26.0937L61.5488 24.9433C63.5146 28.672 64.6964 32.8743 64.8726 37.3322H62.5684C61.9233 37.3322 61.4018 37.8537 61.4018 38.4988C61.4018 39.144 61.9233 39.6655 62.5684 39.6655H64.8726C64.6964 44.1233 63.5146 48.3257 61.5488 52.0543L59.5573 50.904C58.9996 50.582 58.2856 50.771 57.9636 51.331C57.6416 51.8898 57.8329 52.6027 58.3906 52.9247L60.3774 54.0715C58.0616 57.722 54.9606 60.823 51.3101 63.1388L50.1633 61.152C49.8401 60.592 49.1249 60.4018 48.5696 60.725C48.0108 61.047 47.8194 61.761 48.1426 62.3187L49.2929 64.3102C45.6168 66.2492 41.4821 67.4275 37.0943 67.6293V65.3333C37.0943 64.6882 36.5728 64.1667 35.9276 64.1667C35.2824 64.1667 34.7609 64.6882 34.7609 65.3333V67.6387C32.8978 67.5745 31.0288 67.3412 29.1889 66.9188C28.5613 66.7683 27.9348 67.1673 27.7913 67.795C27.6466 68.4227 28.0398 69.0492 28.6674 69.1927C30.9961 69.7293 33.3749 70 35.7351 70C35.7923 70 35.8471 69.9965 35.9043 69.9953C35.9124 69.9953 35.9183 70 35.9253 70C35.9346 70 35.9428 69.9942 35.9521 69.9942C41.5603 69.9557 46.8219 68.4413 51.3743 65.8257C51.4104 65.8093 51.4489 65.8012 51.4839 65.7802C51.5073 65.7662 51.5201 65.744 51.5423 65.7288C56.2544 62.9825 60.1919 59.0497 62.9441 54.341C62.9663 54.3095 62.9943 54.285 63.0141 54.25C63.0281 54.2255 63.0269 54.1998 63.0386 54.1753C65.7033 49.5553 67.2351 44.205 67.2351 38.5C67.2351 32.795 65.7033 27.4447 63.0398 22.8247ZM62.9593 9.62617L64.6089 11.2758L62.9593 12.9267L61.3084 11.2758L62.9593 9.62617ZM34.7586 7.0245V3.5H30.6753C30.3544 3.5 30.0919 3.2375 30.0919 2.91667C30.0919 2.59583 30.3544 2.33333 30.6753 2.33333H41.1753C41.4961 2.33333 41.7586 2.59583 41.7586 2.91667C41.7586 3.2375 41.4961 3.5 41.1753 3.5H37.0919V7.0245C36.6859 7.00817 36.2986 7 35.9253 7C35.8926 7 35.8553 7.00233 35.8226 7.00233C35.7934 7.00233 35.7643 7 35.7351 7C35.5438 7 35.3524 7.01283 35.1611 7.01633C35.0258 7.01983 34.8986 7.01867 34.7586 7.0245Z" fill="url(#paint1_linear)"/>
<path d="M25.4253 16.3333H19.592C18.9468 16.3333 18.4253 16.8548 18.4253 17.4999C18.4253 18.1451 18.9468 18.6666 19.592 18.6666H25.4253C26.0705 18.6666 26.592 18.1451 26.592 17.4999C26.592 16.8548 26.0705 16.3333 25.4253 16.3333Z" fill="url(#paint2_linear)"/>
<path d="M25.4251 24.5H13.7585C13.1133 24.5 12.5918 25.0215 12.5918 25.6667C12.5918 26.3118 13.1133 26.8333 13.7585 26.8333H25.4251C26.0703 26.8333 26.5918 26.3118 26.5918 25.6667C26.5918 25.0215 26.0703 24.5 25.4251 24.5Z" fill="url(#paint3_linear)"/>
<path d="M25.425 32.6667H7.92497C7.2798 32.6667 6.7583 33.1882 6.7583 33.8334C6.7583 34.4786 7.2798 35.0001 7.92497 35.0001H25.425C26.0701 35.0001 26.5916 34.4786 26.5916 33.8334C26.5916 33.1882 26.0701 32.6667 25.425 32.6667Z" fill="url(#paint4_linear)"/>
<path d="M25.4251 40.8333H3.25846C2.6133 40.8333 2.0918 41.3548 2.0918 41.9999C2.0918 42.6451 2.6133 43.1666 3.25846 43.1666H25.4251C26.0703 43.1666 26.5918 42.6451 26.5918 41.9999C26.5918 41.3548 26.0703 40.8333 25.4251 40.8333Z" fill="url(#paint5_linear)"/>
<path d="M25.4251 49H10.2585C9.6133 49 9.0918 49.5215 9.0918 50.1667C9.0918 50.8118 9.6133 51.3333 10.2585 51.3333H25.4251C26.0703 51.3333 26.5918 50.8118 26.5918 50.1667C26.5918 49.5215 26.0703 49 25.4251 49Z" fill="url(#paint6_linear)"/>
<path d="M25.4251 57.1667H17.2585C16.6133 57.1667 16.0918 57.6882 16.0918 58.3334C16.0918 58.9786 16.6133 59.5001 17.2585 59.5001H25.4251C26.0703 59.5001 26.5918 58.9786 26.5918 58.3334C26.5918 57.6882 26.0703 57.1667 25.4251 57.1667Z" fill="url(#paint7_linear)"/>
<defs>
<linearGradient id="paint0_linear" x1="41.7581" y1="25.6672" x2="41.7581" y2="44.3334" gradientUnits="userSpaceOnUse">
<stop stop-color="#E85FB1"/>
<stop offset="1" stop-color="#C447FF"/>
</linearGradient>
<linearGradient id="paint1_linear" x1="47.8336" y1="0" x2="47.8336" y2="70" gradientUnits="userSpaceOnUse">
<stop stop-color="#E85FB1"/>
<stop offset="1" stop-color="#C447FF"/>
</linearGradient>
<linearGradient id="paint2_linear" x1="22.5086" y1="16.3333" x2="22.5086" y2="18.6666" gradientUnits="userSpaceOnUse">
<stop stop-color="#E85FB1"/>
<stop offset="1" stop-color="#C447FF"/>
</linearGradient>
<linearGradient id="paint3_linear" x1="19.5918" y1="24.5" x2="19.5918" y2="26.8333" gradientUnits="userSpaceOnUse">
<stop stop-color="#E85FB1"/>
<stop offset="1" stop-color="#C447FF"/>
</linearGradient>
<linearGradient id="paint4_linear" x1="16.675" y1="32.6667" x2="16.675" y2="35.0001" gradientUnits="userSpaceOnUse">
<stop stop-color="#E85FB1"/>
<stop offset="1" stop-color="#C447FF"/>
</linearGradient>
<linearGradient id="paint5_linear" x1="14.3418" y1="40.8333" x2="14.3418" y2="43.1666" gradientUnits="userSpaceOnUse">
<stop stop-color="#E85FB1"/>
<stop offset="1" stop-color="#C447FF"/>
</linearGradient>
<linearGradient id="paint6_linear" x1="17.8418" y1="49" x2="17.8418" y2="51.3333" gradientUnits="userSpaceOnUse">
<stop stop-color="#E85FB1"/>
<stop offset="1" stop-color="#C447FF"/>
</linearGradient>
<linearGradient id="paint7_linear" x1="21.3418" y1="57.1667" x2="21.3418" y2="59.5001" gradientUnits="userSpaceOnUse">
<stop stop-color="#E85FB1"/>
<stop offset="1" stop-color="#C447FF"/>
</linearGradient>
</defs>
</svg>
