<svg width="41" height="42" viewBox="0 0 41 42" fill="none" xmlns="http://www.w3.org/2000/svg">
<path d="M26.281 9.5749C22.2092 8.80837 18.0798 8.80837 14.007 9.5749C12.2257 9.96752 9.98467 12.0926 9.54654 13.802C8.81782 17.1094 8.81782 20.4622 9.54654 23.7696C9.98467 25.4789 12.2257 27.604 14.007 27.9967C14.0075 27.9968 14.0079 27.9968 14.0084 27.9969C14.0877 28.0123 14.1456 28.0804 14.1456 28.1604V33.0055C14.1456 33.2477 14.4443 33.3669 14.6143 33.1916L16.9399 30.8296C16.9399 30.8296 18.7931 28.947 19.1263 28.6086C19.1589 28.5754 19.2039 28.5575 19.2505 28.5588C21.5985 28.6232 23.949 28.4355 26.281 27.9968C28.0623 27.6041 30.3042 25.479 30.7415 23.7697C31.4711 20.4623 31.4711 17.1095 30.7415 13.8021C30.3042 12.0926 28.0632 9.96752 26.281 9.5749ZM26.3431 24.0163C25.9868 24.7648 25.4684 25.3876 24.7206 25.7851C24.5097 25.8973 24.2575 25.9335 24.0194 26.0061C23.7455 25.9238 23.4845 25.8685 23.2421 25.769C20.7307 24.7379 18.4193 23.4076 16.5884 21.3684C15.5472 20.2088 14.7322 18.8996 14.0435 17.5142C13.7168 16.8572 13.4415 16.1744 13.1609 15.4961C12.9049 14.8775 13.2819 14.2385 13.6787 13.7724C14.0511 13.335 14.5303 13.0003 15.0492 12.7536C15.4542 12.561 15.8537 12.672 16.1495 13.0118C16.789 13.7462 17.3764 14.5183 17.8521 15.3697C18.1445 15.8933 18.0643 16.5335 17.5342 16.8898C17.4054 16.9765 17.288 17.0781 17.168 17.176C17.0627 17.2617 16.9636 17.3483 16.8915 17.4644C16.7596 17.6768 16.7533 17.9274 16.8382 18.1583C17.4919 19.936 18.5937 21.3184 20.4018 22.0629C20.6913 22.182 20.9818 22.3207 21.3151 22.2823C21.8733 22.2177 22.0541 21.6118 22.4452 21.2952C22.8276 20.9859 23.3162 20.9818 23.728 21.2397C24.14 21.4977 24.5394 21.7746 24.9363 22.0546C25.3259 22.3293 25.7139 22.5981 26.0733 22.9113C26.4186 23.2124 26.5377 23.6075 26.3431 24.0163ZM23.1004 18.2233C22.9444 18.2261 23.0057 18.223 23.065 18.2213C22.8137 18.2126 22.6771 18.0663 22.6501 17.8283C22.6304 17.6544 22.6148 17.4782 22.5729 17.3091C22.4903 16.9759 22.3114 16.6672 22.0282 16.463C21.8946 16.3666 21.7431 16.2963 21.5844 16.2511C21.3827 16.1935 21.1734 16.2093 20.9722 16.1605C20.7538 16.1076 20.633 15.9325 20.6672 15.7297C20.6985 15.5451 20.8799 15.4011 21.0837 15.4157C22.3573 15.5067 23.2676 16.1583 23.3975 17.6421C23.4067 17.7468 23.4175 17.8574 23.394 17.9576C23.3559 18.1204 23.2383 18.2051 23.1194 18.2205C23.1291 18.2207 23.1273 18.2215 23.1004 18.2233ZM22.3084 14.8296C21.9176 14.6403 21.4949 14.5226 21.0665 14.4524C20.8793 14.4218 20.6901 14.4032 20.502 14.3773C20.274 14.3459 20.1524 14.2022 20.1631 13.9798C20.1732 13.7715 20.327 13.6217 20.5564 13.6345C21.3103 13.6769 22.0385 13.8381 22.7087 14.1893C24.0717 14.9036 24.8503 16.0311 25.0775 17.5365C25.0879 17.6047 25.1043 17.6723 25.1096 17.7408C25.1225 17.9097 25.1305 18.079 25.1437 18.3018C25.1383 18.3424 25.1354 18.4379 25.1114 18.5278C25.0243 18.8542 24.5242 18.895 24.4091 18.5656C24.375 18.4679 24.3699 18.3567 24.3697 18.2514C24.3685 17.5629 24.2173 16.8751 23.8664 16.276C23.5057 15.6604 22.9546 15.1428 22.3084 14.8296ZM26.5199 19.4823C26.2565 19.4855 26.138 19.2674 26.1209 19.0337C26.0871 18.5711 26.0637 18.1065 25.9992 17.6477C25.6592 15.2261 23.7078 13.2226 21.2721 12.7927C20.9056 12.7279 20.5303 12.7109 20.1591 12.6724C19.9244 12.648 19.617 12.6339 19.565 12.3452C19.5214 12.1031 19.7278 11.9104 19.9607 11.898C20.0241 11.8946 20.0878 11.8975 20.1514 11.8977C23.306 11.9853 20.3439 11.9045 20.1598 11.8982C23.4411 11.9928 26.1351 14.1491 26.7128 17.3602C26.8113 17.9078 26.8464 18.4677 26.8902 19.0235C26.9086 19.2572 26.7748 19.4793 26.5199 19.4823Z" fill="#BC5FE8"/>
<path d="M12 0.8125C5.37258 0.8125 0 6.18508 0 12.8125V29.3855C0 36.0129 5.37258 41.3855 12 41.3855H29C35.6274 41.3855 41 36.0129 41 29.3855V12.8125C41 6.18508 35.6274 0.8125 29 0.8125H12ZM33.4668 24.9197L33.4587 24.9517C32.8037 27.5719 29.851 30.3834 27.1395 30.9683L27.1089 30.9745C24.9164 31.3885 22.7078 31.595 20.5 31.595C19.2612 31.595 18.0551 32.0491 17.1916 32.9373L15.5564 34.6193C14.8151 35.3832 13.5115 34.8633 13.5115 33.8047C13.5115 32.0746 12.3116 30.5855 10.9209 29.5563C9.30103 28.3577 7.95723 26.6164 7.54054 24.9517L7.53334 24.9196C6.72365 21.2605 6.72365 17.5498 7.53334 13.8908L7.54054 13.8587C8.19638 11.2386 11.149 8.4271 13.8597 7.84218L13.8912 7.83595C18.2761 7.00799 22.7231 7.00799 27.1089 7.83595L27.1395 7.84218C29.851 8.4271 32.8037 11.2386 33.4587 13.8587L33.4668 13.8908C34.2764 17.5499 34.2764 21.2606 33.4668 24.9197Z" fill="url(#paint0_linear)"/>
<defs>
<linearGradient id="paint0_linear" x1="20.5" y1="0.8125" x2="20.5" y2="41.3855" gradientUnits="userSpaceOnUse">
<stop stop-color="#E85FB1"/>
<stop offset="1" stop-color="#C447FF"/>
</linearGradient>
</defs>
</svg>
